  0
SECTION
  2
HEADER
  9
$ACADVER
  1
AC1032
  9
$ACADMAINTVER
 90
        4
  9
$DWGCODEPAGE
  3
ANSI_1250
  9
$LASTSAVEDBY
  1
localuser
  9
$REQUIREDVERSIONS
160
                 0
  9
$INSBASE
 10
0.0
 20
0.0
 30
0.0
  9
$EXTMIN
 10
-8.580526500000001
 20
-2.606499
 30
0.0
  9
$EXTMAX
 10
8.016099
 20
5.669622
 30
0.0
  9
$LIMMIN
 10
0.0
 20
0.0
  9
$LIMMAX
 10
12.0
 20
9.0
  9
$ORTHOMODE
 70
     0
  9
$REGENMODE
 70
     1
  9
$FILLMODE
 70
     1
  9
$QTEXTMODE
 70
     0
  9
$MIRRTEXT
 70
     1
  9
$LTSCALE
 40
1.0
  9
$ATTMODE
 70
     1
  9
$TEXTSIZE
 40
0.2
  9
$TRACEWID
 40
0.05
  9
$TEXTSTYLE
  7
Standard
  9
$CLAYER
  8
0
  9
$CELTYPE
  6
ByLayer
  9
$CECOLOR
 62
   256
  9
$CELTSCALE
 40
1.0
  9
$DISPSILH
 70
     0
  9
$DIMSCALE
 40
1.0
  9
$DIMASZ
 40
0.18
  9
$DIMEXO
 40
0.0625
  9
$DIMDLI
 40
0.38
  9
$DIMRND
 40
0.0
  9
$DIMDLE
 40
0.0
  9
$DIMEXE
 40
0.18
  9
$DIMTP
 40
0.0
  9
$DIMTM
 40
0.0
  9
$DIMTXT
 40
0.18
  9
$DIMCEN
 40
0.09
  9
$DIMTSZ
 40
0.0
  9
$DIMTOL
 70
     0
  9
$DIMLIM
 70
     0
  9
$DIMTIH
 70
     1
  9
$DIMTOH
 70
     1
  9
$DIMSE1
 70
     0
  9
$DIMSE2
 70
     0
  9
$DIMTAD
 70
     0
  9
$DIMZIN
 70
     0
  9
$DIMBLK
  1

  9
$DIMASO
 70
     1
  9
$DIMSHO
 70
     1
  9
$DIMPOST
  1

  9
$DIMAPOST
  1

  9
$DIMALT
 70
     0
  9
$DIMALTD
 70
     2
  9
$DIMALTF
 40
25.4
  9
$DIMLFAC
 40
1.0
  9
$DIMTOFL
 70
     0
  9
$DIMTVP
 40
0.0
  9
$DIMTIX
 70
     0
  9
$DIMSOXD
 70
     0
  9
$DIMSAH
 70
     0
  9
$DIMBLK1
  1

  9
$DIMBLK2
  1

  9
$DIMSTYLE
  2
Standard
  9
$DIMCLRD
 70
     0
  9
$DIMCLRE
 70
     0
  9
$DIMCLRT
 70
     0
  9
$DIMTFAC
 40
1.0
  9
$DIMGAP
 40
0.09
  9
$DIMJUST
 70
     0
  9
$DIMSD1
 70
     0
  9
$DIMSD2
 70
     0
  9
$DIMTOLJ
 70
     1
  9
$DIMTZIN
 70
     0
  9
$DIMALTZ
 70
     0
  9
$DIMALTTZ
 70
     0
  9
$DIMUPT
 70
     0
  9
$DIMDEC
 70
     4
  9
$DIMTDEC
 70
     4
  9
$DIMALTU
 70
     2
  9
$DIMALTTD
 70
     2
  9
$DIMTXSTY
  7
Standard
  9
$DIMAUNIT
 70
     0
  9
$DIMADEC
 70
     0
  9
$DIMALTRND
 40
0.0
  9
$DIMAZIN
 70
     0
  9
$DIMDSEP
 70
    46
  9
$DIMATFIT
 70
     3
  9
$DIMFRAC
 70
     0
  9
$DIMLDRBLK
  1

  9
$DIMLUNIT
 70
     2
  9
$DIMLWD
 70
    -2
  9
$DIMLWE
 70
    -2
  9
$DIMTMOVE
 70
     0
  9
$DIMFXL
 40
1.0
  9
$DIMFXLON
 70
     0
  9
$DIMJOGANG
 40
0.7853981633974483
  9
$DIMTFILL
 70
     0
  9
$DIMTFILLCLR
 70
     0
  9
$DIMARCSYM
 70
     0
  9
$DIMLTYPE
  6

  9
$DIMLTEX1
  6

  9
$DIMLTEX2
  6

  9
$DIMTXTDIRECTION
 70
     0
  9
$LUNITS
 70
     2
  9
$LUPREC
 70
     4
  9
$SKETCHINC
 40
0.1
  9
$FILLETRAD
 40
0.0
  9
$AUNITS
 70
     0
  9
$AUPREC
 70
     0
  9
$MENU
  1
.
  9
$ELEVATION
 40
0.0
  9
$PELEVATION
 40
0.0
  9
$THICKNESS
 40
0.0
  9
$LIMCHECK
 70
     0
  9
$CHAMFERA
 40
0.0
  9
$CHAMFERB
 40
0.0
  9
$CHAMFERC
 40
0.0
  9
$CHAMFERD
 40
0.0
  9
$SKPOLY
 70
     0
  9
$TDCREATE
 40
2460192.513537488
  9
$TDUCREATE
 40
2460192.430204155
  9
$TDUPDATE
 40
2460192.543580880
  9
$TDUUPDATE
 40
2460192.460247546
  9
$TDINDWG
 40
0.030043773
  9
$TDUSRTIMER
 40
0.030043565
  9
$USRTIMER
 70
     1
  9
$ANGBASE
 50
0.0
  9
$ANGDIR
 70
     0
  9
$PDMODE
 70
     0
  9
$PDSIZE
 40
0.0
  9
$PLINEWID
 40
0.0
  9
$SPLFRAME
 70
     0
  9
$SPLINETYPE
 70
     6
  9
$SPLINESEGS
 70
     8
  9
$HANDSEED
  5
645
  9
$SURFTAB1
 70
     6
  9
$SURFTAB2
 70
     6
  9
$SURFTYPE
 70
     6
  9
$SURFU
 70
     6
  9
$SURFV
 70
     6
  9
$UCSBASE
  2

  9
$UCSNAME
  2

  9
$UCSORG
 10
0.0
 20
0.0
 30
0.0
  9
$UCSXDIR
 10
1.0
 20
0.0
 30
0.0
  9
$UCSYDIR
 10
0.0
 20
1.0
 30
0.0
  9
$UCSORTHOREF
  2

  9
$UCSORTHOVIEW
 70
     0
  9
$UCSORGTOP
 10
0.0
 20
0.0
 30
0.0
  9
$UCSORGBOTTOM
 10
0.0
 20
0.0
 30
0.0
  9
$UCSORGLEFT
 10
0.0
 20
0.0
 30
0.0
  9
$UCSORGRIGHT
 10
0.0
 20
0.0
 30
0.0
  9
$UCSORGFRONT
 10
0.0
 20
0.0
 30
0.0
  9
$UCSORGBACK
 10
0.0
 20
0.0
 30
0.0
  9
$PUCSBASE
  2

  9
$PUCSNAME
  2

  9
$PUCSORG
 10
0.0
 20
0.0
 30
0.0
  9
$PUCSXDIR
 10
1.0
 20
0.0
 30
0.0
  9
$PUCSYDIR
 10
0.0
 20
1.0
 30
0.0
  9
$PUCSORTHOREF
  2

  9
$PUCSORTHOVIEW
 70
     0
  9
$PUCSORGTOP
 10
0.0
 20
0.0
 30
0.0
  9
$PUCSORGBOTTOM
 10
0.0
 20
0.0
 30
0.0
  9
$PUCSORGLEFT
 10
0.0
 20
0.0
 30
0.0
  9
$PUCSORGRIGHT
 10
0.0
 20
0.0
 30
0.0
  9
$PUCSORGFRONT
 10
0.0
 20
0.0
 30
0.0
  9
$PUCSORGBACK
 10
0.0
 20
0.0
 30
0.0
  9
$USERI1
 70
     0
  9
$USERI2
 70
     0
  9
$USERI3
 70
     0
  9
$USERI4
 70
     0
  9
$USERI5
 70
     0
  9
$USERR1
 40
0.0
  9
$USERR2
 40
0.0
  9
$USERR3
 40
0.0
  9
$USERR4
 40
0.0
  9
$USERR5
 40
0.0
  9
$WORLDVIEW
 70
     1
  9
$SHADEDGE
 70
     3
  9
$SHADEDIF
 70
    70
  9
$TILEMODE
 70
     1
  9
$MAXACTVP
 70
    64
  9
$PINSBASE
 10
0.0
 20
0.0
 30
0.0
  9
$PLIMCHECK
 70
     0
  9
$PEXTMIN
 10
1.049999960629921
 20
0.7999999606299211
 30
0.0
  9
$PEXTMAX
 10
9.449999645669292
 20
7.199999645669291
 30
0.0
  9
$PLIMMIN
 10
-0.25
 20
-0.25
  9
$PLIMMAX
 10
10.75
 20
8.25
  9
$UNITMODE
 70
     0
  9
$VISRETAIN
 70
     1
  9
$PLINEGEN
 70
     0
  9
$PSLTSCALE
 70
     1
  9
$TREEDEPTH
 70
  3020
  9
$CMLSTYLE
  2
Standard
  9
$CMLJUST
 70
     0
  9
$CMLSCALE
 40
1.0
  9
$PROXYGRAPHICS
 70
     1
  9
$MEASUREMENT
 70
     0
  9
$CELWEIGHT
370
    -1
  9
$ENDCAPS
280
     0
  9
$JOINSTYLE
280
     0
  9
$LWDISPLAY
290
     0
  9
$INSUNITS
 70
     1
  9
$HYPERLINKBASE
  1

  9
$STYLESHEET
  1

  9
$XEDIT
290
     1
  9
$CEPSNTYPE
380
     0
  9
$PSTYLEMODE
290
     1
  9
$FINGERPRINTGUID
  2
{28CE82C4-177F-48D2-90F4-94FC547B30C5}
  9
$VERSIONGUID
  2
{DDFA4CF2-3068-4254-93D1-5D22B31911C8}
  9
$EXTNAMES
290
     1
  9
$PSVPSCALE
 40
0.0
  9
$OLESTARTUP
290
     0
  9
$SORTENTS
280
   127
  9
$INDEXCTL
280
     0
  9
$HIDETEXT
280
     1
  9
$XCLIPFRAME
280
     2
  9
$HALOGAP
280
     0
  9
$OBSCOLOR
 70
   257
  9
$OBSLTYPE
280
     0
  9
$INTERSECTIONDISPLAY
280
     0
  9
$INTERSECTIONCOLOR
 70
   257
  9
$DIMASSOC
280
     2
  9
$PROJECTNAME
  1

  9
$CAMERADISPLAY
290
     0
  9
$LENSLENGTH
 40
50.0
  9
$CAMERAHEIGHT
 40
0.0
  9
$STEPSPERSEC
 40
2.0
  9
$STEPSIZE
 40
6.0
  9
$3DDWFPREC
 40
2.0
  9
$PSOLWIDTH
 40
0.25
  9
$PSOLHEIGHT
 40
4.0
  9
$LOFTANG1
 40
1.570796326794896
  9
$LOFTANG2
 40
1.570796326794896
  9
$LOFTMAG1
 40
0.0
  9
$LOFTMAG2
 40
0.0
  9
$LOFTPARAM
 70
     7
  9
$LOFTNORMALS
280
     1
  9
$LATITUDE
 40
37.795
  9
$LONGITUDE
 40
-122.394
  9
$NORTHDIRECTION
 40
0.0
  9
$TIMEZONE
 70
 -8000
  9
$LIGHTGLYPHDISPLAY
280
     1
  9
$TILEMODELIGHTSYNCH
280
     1
  9
$CMATERIAL
347
136
  9
$SOLIDHIST
280
     1
  9
$SHOWHIST
280
     1
  9
$DWFFRAME
280
     2
  9
$DGNFRAME
280
     2
  9
$REALWORLDSCALE
290
     1
  9
$INTERFERECOLOR
 62
   256
  9
$CSHADOW
280
     0
  9
$SHADOWPLANELOCATION
 40
0.0
  0
ENDSEC
  0
SECTION
  2
CLASSES
  0
CLASS
  1
ACDBDICTIONARYWDFLT
  2
AcDbDictionaryWithDefault
  3
ObjectDBX Classes
 90
        0
 91
        1
280
     0
281
     0
  0
CLASS
  1
ACDBPLACEHOLDER
  2
AcDbPlaceHolder
  3
ObjectDBX Classes
 90
        0
 91
        0
280
     0
281
     0
  0
CLASS
  1
LAYOUT
  2
AcDbLayout
  3
ObjectDBX Classes
 90
        0
 91
        0
280
     0
281
     0
  0
CLASS
  1
DICTIONARYVAR
  2
AcDbDictionaryVar
  3
ObjectDBX Classes
 90
        0
 91
        8
280
     0
281
     0
  0
CLASS
  1
TABLESTYLE
  2
AcDbTableStyle
  3
ObjectDBX Classes
 90
     4095
 91
        2
280
     0
281
     0
  0
CLASS
  1
WIPEOUTVARIABLES
  2
AcDbWipeoutVariables
  3
"WipeOut|Product Desc:     WipeOut Dbx Application|Company:          Autodesk, Inc.|WEB Address:      www.autodesk.com"
 90
        0
 91
        0
280
     0
281
     0
  0
CLASS
  1
SCALE
  2
AcDbScale
  3
ObjectDBX Classes
 90
     1153
 91
       33
280
     0
281
     0
  0
CLASS
  1
MLEADERSTYLE
  2
AcDbMLeaderStyle
  3
ACDB_MLEADERSTYLE_CLASS
 90
     4095
 91
        3
280
     0
281
     0
  0
CLASS
  1
CELLSTYLEMAP
  2
AcDbCellStyleMap
  3
ObjectDBX Classes
 90
     1152
 91
        0
280
     0
281
     0
  0
CLASS
  1
MATERIAL
  2
AcDbMaterial
  3
ObjectDBX Classes
 90
     1153
 91
        6
280
     0
281
     0
  0
CLASS
  1
VISUALSTYLE
  2
AcDbVisualStyle
  3
ObjectDBX Classes
 90
     4095
 91
       50
280
     0
281
     0
  0
CLASS
  1
ACDBSECTIONVIEWSTYLE
  2
AcDbSectionViewStyle
  3
ObjectDBX Classes
 90
     1025
 91
        1
280
     0
281
     0
  0
CLASS
  1
ACDBDETAILVIEWSTYLE
  2
AcDbDetailViewStyle
  3
ObjectDBX Classes
 90
     1025
 91
        1
280
     0
281
     0
  0
CLASS
  1
SORTENTSTABLE
  2
AcDbSortentsTable
  3
ObjectDBX Classes
 90
        0
 91
        2
280
     0
281
     0
  0
CLASS
  1
ACAD_EVALUATION_GRAPH
  2
AcDbEvalGraph
  3
ObjectDBX Classes
 90
     1153
 91
        2
280
     0
281
     0
  0
CLASS
  1
ZRXEBBLOCKEDITORCUSTOBJ
  2
CZrxEbBlockEditorObject
  3
CZrxEbBlockEditorObject
 90
     1024
 91
        2
280
     0
281
     0
  0
ENDSEC
  0
SECTION
  2
TABLES
  0
TABLE
  2
VPORT
  5
8
330
0
100
AcDbSymbolTable
 70
     1
  0
VPORT
  5
1BB
330
8
100
AcDbSymbolTableRecord
100
AcDbViewportTableRecord
  2
*Active
 70
     0
 10
0.0
 20
0.0
 11
1.0
 21
1.0
 12
1.13809287765518
 22
1.11749303697018
 13
0.0
 23
0.0
 14
0.5
 24
0.5
 15
0.5
 25
0.5
 16
0.0
 26
0.0
 36
1.0
 17
0.0
 27
0.0
 37
0.0
 40
19.85885440171974
 41
2.349095966620306
 42
50.0
 43
0.0
 44
0.0
 50
0.0
 51
0.0
 71
    16
 72
  1000
 73
     1
 74
     3
 75
     0
 76
     0
 77
     0
 78
     0
281
     0
 65
     1
110
0.0
120
0.0
130
0.0
111
1.0
121
0.0
131
0.0
112
0.0
122
1.0
132
0.0
 79
     0
146
0.0
348
154
 60
     3
 61
     5
292
     1
282
     1
141
0.0
142
0.0
 63
   256
1001
ACAD_NAV_VCDISPLAY
1070
     3
  0
ENDTAB
  0
TABLE
  2
LTYPE
  5
5
330
0
100
AcDbSymbolTable
 70
     2
  0
LTYPE
  5
14
330
5
100
AcDbSymbolTableRecord
100
AcDbLinetypeTableRecord
  2
ByBlock
 70
     0
  3

 72
    65
 73
     0
 40
0.0
  0
LTYPE
  5
15
330
5
100
AcDbSymbolTableRecord
100
AcDbLinetypeTableRecord
  2
ByLayer
 70
     0
  3

 72
    65
 73
     0
 40
0.0
  0
LTYPE
  5
16
330
5
100
AcDbSymbolTableRecord
100
AcDbLinetypeTableRecord
  2
Continuous
 70
     0
  3
Solid line
 72
    65
 73
     0
 40
0.0
  0
LTYPE
  5
1D7
330
5
100
AcDbSymbolTableRecord
100
AcDbLinetypeTableRecord
  2
PHANTOM2
 70
     0
  3
Phantom (.5x) ___ _ _ ___ _ _ ___ _ _ ___ _ _
 72
    65
 73
     6
 40
1.25
 49
0.625
 74
     0
 49
-0.125
 74
     0
 49
0.125
 74
     0
 49
-0.125
 74
     0
 49
0.125
 74
     0
 49
-0.125
 74
     0
  0
ENDTAB
  0
TABLE
  2
LAYER
  5
2
102
{ACAD_XDICTIONARY
360
F6
102
}
330
0
100
AcDbSymbolTable
 70
     1
  0
LAYER
  5
10
330
2
100
AcDbSymbolTableRecord
100
AcDbLayerTableRecord
  2
0
 70
     0
 62
     7
  6
Continuous
370
    -3
390
F
347
146
348
0
  0
ENDTAB
  0
TABLE
  2
STYLE
  5
3
330
0
100
AcDbSymbolTable
 70
     2
  0
STYLE
  5
11
330
3
100
AcDbSymbolTableRecord
100
AcDbTextStyleTableRecord
  2
Standard
 70
     0
 40
0.0
 41
1.0
 50
0.0
 71
     0
 42
0.2
  3
arial.ttf
  4

1001
ACAD
1000
Arial
1071
       34
  0
STYLE
  5
21E
330
3
100
AcDbSymbolTableRecord
100
AcDbTextStyleTableRecord
  2
Annotative
 70
     0
 40
0.0
 41
1.0
 50
0.0
 71
     0
 42
0.2
  3
arial.ttf
  4

1001
AcadAnnotative
1000
AnnotativeData
1002
{
1070
     1
1070
     1
1002
}
1001
ACAD
1000
Arial
1071
       34
  0
ENDTAB
  0
TABLE
  2
VIEW
  5
6
330
0
100
AcDbSymbolTable
 70
     0
  0
ENDTAB
  0
TABLE
  2
UCS
  5
7
330
0
100
AcDbSymbolTable
 70
     0
  0
ENDTAB
  0
TABLE
  2
APPID
  5
9
330
0
100
AcDbSymbolTable
 70
     9
  0
APPID
  5
12
330
9
100
AcDbSymbolTableRecord
100
AcDbRegAppTableRecord
  2
ACAD
 70
     0
  0
APPID
  5
F0
330
9
100
AcDbSymbolTableRecord
100
AcDbRegAppTableRecord
  2
ACAD_PSEXT
 70
     0
  0
APPID
  5
19B
330
9
100
AcDbSymbolTableRecord
100
AcDbRegAppTableRecord
  2
ACAD_NAV_VCDISPLAY
 70
     0
  0
APPID
  5
21F
330
9
100
AcDbSymbolTableRecord
100
AcDbRegAppTableRecord
  2
AcadAnnoPO
 70
     0
  0
APPID
  5
220
330
9
100
AcDbSymbolTableRecord
100
AcDbRegAppTableRecord
  2
AcadAnnotative
 70
     0
  0
APPID
  5
222
330
9
100
AcDbSymbolTableRecord
100
AcDbRegAppTableRecord
  2
ACAD_DSTYLE_DIMJAG
 70
     0
  0
APPID
  5
223
330
9
100
AcDbSymbolTableRecord
100
AcDbRegAppTableRecord
  2
ACAD_DSTYLE_DIMBREAK
 70
     0
  0
APPID
  5
224
330
9
100
AcDbSymbolTableRecord
100
AcDbRegAppTableRecord
  2
ACAD_DSTYLE_DIMTALN
 70
     0
  0
APPID
  5
276
330
9
100
AcDbSymbolTableRecord
100
AcDbRegAppTableRecord
  2
ACAUTHENVIRON
 70
     0
  0
ENDTAB
  0
TABLE
  2
DIMSTYLE
  5
A
330
0
100
AcDbSymbolTable
 70
     2
100
AcDbDimStyleTable
 71
     2
340
27
340
225
  0
DIMSTYLE
105
27
330
A
100
AcDbSymbolTableRecord
100
AcDbDimStyleTableRecord
  2
Standard
 70
     0
340
11
  0
DIMSTYLE
105
225
330
A
100
AcDbSymbolTableRecord
100
AcDbDimStyleTableRecord
  2
Annotative
 70
     0
340
11
1001
ACAD_DSTYLE_DIMBREAK
1070
   391
1040
0.125
1001
AcadAnnotative
1000
AnnotativeData
1002
{
1070
     1
1070
     1
1002
}
1001
ACAD_DSTYLE_DIMJAG
1070
   388
1040
1.5
1001
ACAD_DSTYLE_DIMTALN
1070
   392
1070
     0
  0
ENDTAB
  0
TABLE
  2
BLOCK_RECORD
  5
1
330
0
100
AcDbSymbolTable
 70
     5
  0
BLOCK_RECORD
  5
1F
330
1
100
AcDbSymbolTableRecord
100
AcDbBlockTableRecord
  2
*Model_Space
340
22
 70
     0
280
     1
281
     0
  0
BLOCK_RECORD
  5
1D1
330
1
100
AcDbSymbolTableRecord
100
AcDbBlockTableRecord
  2
*Paper_Space
340
1D2
 70
     0
280
     1
281
     0
  0
BLOCK_RECORD
  5
1CC
330
1
100
AcDbSymbolTableRecord
100
AcDbBlockTableRecord
  2
*Paper_Space0
340
1CD
 70
     0
280
     1
281
     0
  0
BLOCK_RECORD
  5
24E
330
1
100
AcDbSymbolTableRecord
100
AcDbBlockTableRecord
  2
logo
340
0
102
{BLKREFS
331
24D
331
262
102
}
 70
     4
280
     1
281
     0
1001
ACAD
1000
DesignCenter Data
1002
{
1070
     1
1070
     4
1002
}
  0
ENDTAB
  0
ENDSEC
  0
SECTION
  2
BLOCKS
  0
BLOCK
  5
20
330
1F
100
AcDbEntity
  8
0
100
AcDbBlockBegin
  2
*Model_Space
 70
     0
 10
0.0
 20
0.0
 30
0.0
  3
*Model_Space
  1

  0
ENDBLK
  5
21
330
1F
100
AcDbEntity
  8
0
100
AcDbBlockEnd
  0
BLOCK
  5
1D3
330
1D1
100
AcDbEntity
 67
     1
  8
0
100
AcDbBlockBegin
  2
*Paper_Space
 70
     0
 10
0.0
 20
0.0
 30
0.0
  3
*Paper_Space
  1

  0
ENDBLK
  5
1D4
330
1D1
100
AcDbEntity
 67
     1
  8
0
100
AcDbBlockEnd
  0
BLOCK
  5
1CE
330
1CC
100
AcDbEntity
  8
0
100
AcDbBlockBegin
  2
*Paper_Space0
 70
     0
 10
0.0
 20
0.0
 30
0.0
  3
*Paper_Space0
  1

  0
ENDBLK
  5
1CF
330
1CC
100
AcDbEntity
  8
0
100
AcDbBlockEnd
  0
BLOCK
  5
24F
330
24E
100
AcDbEntity
  8
0
100
AcDbBlockBegin
  2
logo
 70
     0
 10
0.0
 20
0.0
 30
0.0
  3
logo
  1
logo
  0
LWPOLYLINE
  5
250
330
24E
100
AcDbEntity
  8
0
 62
    22
420
 14296092
370
     0
100
AcDbPolyline
 90
       61
 70
     1
 43
0.0
 10
0.475941
 20
0.361184
 10
0.475941
 20
0.372055
 10
0.477753
 20
0.382323
 10
0.480169
 20
0.392591
 10
0.483793
 20
0.4022550000000001
 10
0.488625
 20
0.410711
 10
0.4934560000000001
 20
0.419166
 10
0.499496
 20
0.427018
 10
0.5061399999999999
 20
0.434266
 10
0.513388
 20
0.440306
 10
0.5212399999999999
 20
0.445742
 10
0.529092
 20
0.450574
 10
0.537547
 20
0.4548020000000001
 10
0.546607
 20
0.457821
 10
0.5556670000000001
 20
0.4602370000000001
 10
0.5749950000000001
 20
0.462653
 10
0.5858660000000001
 20
0.4620490000000001
 10
0.5961340000000001
 20
0.4608410000000001
 10
0.6064020000000001
 20
0.458425
 10
0.616066
 20
0.4548020000000001
 10
0.6251250000000001
 20
0.450574
 10
0.6335810000000001
 20
0.445742
 10
0.6414330000000001
 20
0.4397020000000001
 10
0.6486810000000001
 20
0.4330580000000001
 10
0.6553250000000001
 20
0.4258100000000001
 10
0.661365
 20
0.417958
 10
0.6661960000000001
 20
0.4095030000000001
 10
0.6704240000000001
 20
0.401047
 10
0.674048
 20
0.3919869999999999
 10
0.6764640000000001
 20
0.382323
 10
0.6788800000000001
 20
0.362996
 10
0.678276
 20
0.352728
 10
0.6764640000000001
 20
0.343064
 10
0.6746520000000001
 20
0.3334
 10
0.671028
 20
0.324341
 10
0.667404
 20
0.315885
 10
0.662573
 20
0.307429
 10
0.657137
 20
0.300181
 10
0.650493
 20
0.292933
 10
0.643245
 20
0.286893
 10
0.635393
 20
0.281458
 10
0.626333
 20
0.276626
 10
0.6172740000000001
 20
0.272398
 10
0.6070060000000001
 20
0.269378
 10
0.5961340000000001
 20
0.267566
 10
0.5731830000000001
 20
0.266358
 10
0.5653310000000001
 20
0.266358
 10
0.558083
 20
0.267566
 10
0.5502310000000001
 20
0.269378
 10
0.541775
 20
0.271794
 10
0.533924
 20
0.275418
 10
0.5254680000000001
 20
0.279042
 10
0.517616
 20
0.283873
 10
0.5103680000000001
 20
0.289309
 10
0.5031200000000001
 20
0.295953
 10
0.496476
 20
0.302597
 10
0.4904370000000001
 20
0.310449
 10
0.485605
 20
0.318905
 10
0.4813770000000001
 20
0.328568
 10
0.478357
 20
0.338232
 10
0.475941
 20
0.361184
  0
LWPOLYLINE
  5
251
330
24E
100
AcDbEntity
  8
0
 62
    22
420
 14296092
370
     0
100
AcDbPolyline
 90
       68
 70
     1
 43
0.0
 10
0.288705
 20
0.303805
 10
0.288705
 20
0.512784
 10
0.289309
 20
0.519428
 10
0.291121
 20
0.524864
 10
0.294141
 20
0.5296960000000001
 10
0.297765
 20
0.53332
 10
0.301993
 20
0.53634
 10
0.307429
 20
0.5381520000000001
 10
0.312865
 20
0.5393600000000001
 10
0.3183
 20
0.539964
 10
0.323736
 20
0.5393600000000001
 10
0.329172
 20
0.537548
 10
0.334608
 20
0.535132
 10
0.338836
 20
0.5321120000000001
 10
0.34246
 20
0.528488
 10
0.34548
 20
0.523656
 10
0.3485
 20
0.512784
 10
0.3485
 20
0.396819
 10
0.409502
 20
0.451178
 10
0.4137300000000001
 20
0.454198
 10
0.4185620000000001
 20
0.4566130000000001
 10
0.423394
 20
0.457821
 10
0.4288300000000001
 20
0.458425
 10
0.434266
 20
0.458425
 10
0.4390979999999999
 20
0.457217
 10
0.4439300000000001
 20
0.456009
 10
0.448761
 20
0.453594
 10
0.452989
 20
0.450574
 10
0.456009
 20
0.4475540000000001
 10
0.4590290000000001
 20
0.443326
 10
0.4602370000000001
 20
0.4390979999999999
 10
0.4608410000000001
 20
0.434266
 10
0.4602370000000001
 20
0.429434
 10
0.4554050000000001
 20
0.4185620000000001
 10
0.4058780000000001
 20
0.375075
 10
0.4674850000000001
 20
0.308637
 10
0.470505
 20
0.303805
 10
0.472317
 20
0.299577
 10
0.4729210000000001
 20
0.294745
 10
0.472317
 20
0.290517
 10
0.470505
 20
0.285685
 10
0.4680890000000001
 20
0.281458
 10
0.464465
 20
0.277834
 10
0.4602370000000001
 20
0.27421
 10
0.4554050000000001
 20
0.271794
 10
0.449969
 20
0.269982
 10
0.4439300000000001
 20
0.269378
 10
0.43789
 20
0.269378
 10
0.4318500000000001
 20
0.270586
 10
0.4252060000000001
 20
0.273606
 10
0.412522
 20
0.283873
 10
0.3485
 20
0.355144
 10
0.3485
 20
0.295349
 10
0.347292
 20
0.288705
 10
0.34548
 20
0.282665
 10
0.34246
 20
0.277834
 10
0.338232
 20
0.27421
 10
0.3334
 20
0.27119
 10
0.327964
 20
0.269378
 10
0.3225280000000001
 20
0.26817
 10
0.316489
 20
0.26817
 10
0.311053
 20
0.268774
 10
0.305617
 20
0.270586
 10
0.300181
 20
0.273606
 10
0.295953
 20
0.277834
 10
0.292329
 20
0.282665
 10
0.289913
 20
0.288705
 10
0.288705
 20
0.303805
  0
LWPOLYLINE
  5
252
330
24E
100
AcDbEntity
  8
0
 62
    22
420
 14296092
370
     0
100
AcDbPolyline
 90
      107
 70
     1
 43
0.0
 10
0.062814
 20
0.361184
 10
0.063418
 20
0.372055
 10
0.064626
 20
0.382323
 10
0.067646
 20
0.392591
 10
0.071874
 20
0.4016510000000001
 10
0.076706
 20
0.410711
 10
0.082142
 20
0.419166
 10
0.088786
 20
0.427018
 10
0.096034
 20
0.433662
 10
0.103885
 20
0.4397020000000001
 10
0.112341
 20
0.4451380000000001
 10
0.121401
 20
0.44997
 10
0.130461
 20
0.453594
 10
0.140125
 20
0.4566130000000001
 10
0.150392
 20
0.4590290000000001
 10
0.170928
 20
0.4602370000000001
 10
0.180592
 20
0.4590290000000001
 10
0.189651
 20
0.457217
 10
0.198711
 20
0.4548020000000001
 10
0.207167
 20
0.451782
 10
0.215019
 20
0.4481580000000001
 10
0.222267
 20
0.4439300000000001
 10
0.229515
 20
0.4390979999999999
 10
0.235554
 20
0.433662
 10
0.24099
 20
0.4276220000000001
 10
0.246426
 20
0.420978
 10
0.250654
 20
0.4137300000000001
 10
0.254882
 20
0.4058790000000001
 10
0.257902
 20
0.398027
 10
0.260318
 20
0.388967
 10
0.263942
 20
0.369639
 10
0.263338
 20
0.366016
 10
0.263338
 20
0.362392
 10
0.263338
 20
0.359976
 10
0.262734
 20
0.35756
 10
0.26213
 20
0.355144
 10
0.261526
 20
0.353332
 10
0.260318
 20
0.352124
 10
0.259714
 20
0.350312
 10
0.258506
 20
0.349104
 10
0.257298
 20
0.3485
 10
0.255486
 20
0.347292
 10
0.2536739999999999
 20
0.346688
 10
0.251862
 20
0.346084
 10
0.25005
 20
0.34548
 10
0.245822
 20
0.344272
 10
0.127441
 20
0.344272
 10
0.127441
 20
0.34246
 10
0.128045
 20
0.340044
 10
0.129253
 20
0.338232
 10
0.130461
 20
0.335212
 10
0.132273
 20
0.332796
 10
0.134085
 20
0.329776
 10
0.137105
 20
0.32736
 10
0.139521
 20
0.324945
 10
0.142541
 20
0.321925
 10
0.146164
 20
0.320113
 10
0.149788
 20
0.317697
 10
0.154016
 20
0.315885
 10
0.158244
 20
0.314677
 10
0.163076
 20
0.314073
 10
0.173344
 20
0.314677
 10
0.181196
 20
0.315281
 10
0.189047
 20
0.3170929999999999
 10
0.196295
 20
0.318905
 10
0.202939
 20
0.321321
 10
0.209583
 20
0.323737
 10
0.215019
 20
0.325548
 10
0.220455
 20
0.327964
 10
0.225891
 20
0.329776
 10
0.230723
 20
0.330984
 10
0.235554
 20
0.332192
 10
0.239782
 20
0.332796
 10
0.24401
 20
0.332796
 10
0.247634
 20
0.331588
 10
0.251258
 20
0.329776
 10
0.25911
 20
0.323133
 10
0.261526
 20
0.317697
 10
0.26213
 20
0.312261
 10
0.26213
 20
0.307429
 10
0.260318
 20
0.301993
 10
0.257902
 20
0.297161
 10
0.2536739999999999
 20
0.292933
 10
0.248842
 20
0.288101
 10
0.242802
 20
0.283873
 10
0.236158
 20
0.28025
 10
0.228307
 20
0.276626
 10
0.219851
 20
0.273606
 10
0.210791
 20
0.27119
 10
0.201731
 20
0.268774
 10
0.191463
 20
0.267566
 10
0.170928
 20
0.266358
 10
0.156432
 20
0.266962
 10
0.143145
 20
0.268774
 10
0.131065
 20
0.271794
 10
0.120193
 20
0.276022
 10
0.110529
 20
0.280854
 10
0.101469
 20
0.286893
 10
0.093618
 20
0.292933
 10
0.086974
 20
0.300181
 10
0.080934
 20
0.307429
 10
0.076102
 20
0.315281
 10
0.071874
 20
0.323133
 10
0.06825
 20
0.330984
 10
0.065834
 20
0.338836
 10
0.064022
 20
0.346688
 10
0.062814
 20
0.361184
  0
LWPOLYLINE
  5
253
330
24E
100
AcDbEntity
  8
0
 62
    22
420
 14296092
370
     0
100
AcDbPolyline
 90
       68
 70
     1
 43
0.0
 10
-0.051943
 20
0.405275
 10
-0.057379
 20
0.404671
 10
-0.061607
 20
0.405275
 10
-0.065835
 20
0.407087
 10
-0.068855
 20
0.4101069999999999
 10
-0.071875
 20
0.4137300000000001
 10
-0.073686
 20
0.417958
 10
-0.075498
 20
0.4227899999999999
 10
-0.076102
 20
0.4276220000000001
 10
-0.076706
 20
0.432454
 10
-0.076102
 20
0.437286
 10
-0.074894
 20
0.442118
 10
-0.072479
 20
0.4463460000000001
 10
-0.070063
 20
0.44997
 10
-0.066439
 20
0.4523859999999999
 10
-0.056171
 20
0.4554060000000001
 10
-0.036843
 20
0.4554060000000001
 10
-0.036843
 20
0.4898330000000001
 10
-0.036239
 20
0.495873
 10
-0.034427
 20
0.501308
 10
-0.032011
 20
0.5055360000000001
 10
-0.027784
 20
0.5091600000000001
 10
-0.023556
 20
0.51218
 10
-0.018724
 20
0.5145960000000001
 10
-0.013288
 20
0.5158040000000001
 10
-0.007852
 20
0.5164080000000001
 10
-0.00302
 20
0.5158040000000001
 10
0.002416
 20
0.5152000000000001
 10
0.007248
 20
0.513388
 10
0.01208
 20
0.510972
 10
0.015703
 20
0.5073479999999999
 10
0.018119
 20
0.503724
 10
0.021139
 20
0.493457
 10
0.021139
 20
0.4554060000000001
 10
0.050735
 20
0.4554060000000001
 10
0.054359
 20
0.4548020000000001
 10
0.058586
 20
0.45299
 10
0.061606
 20
0.450574
 10
0.064022
 20
0.4475540000000001
 10
0.066438
 20
0.443326
 10
0.067646
 20
0.4390979999999999
 10
0.068854
 20
0.43487
 10
0.069458
 20
0.4300380000000001
 10
0.068854
 20
0.4252060000000001
 10
0.06825
 20
0.420978
 10
0.066438
 20
0.4167500000000001
 10
0.064022
 20
0.412522
 10
0.061002
 20
0.4095030000000001
 10
0.057378
 20
0.407087
 10
0.048319
 20
0.405275
 10
0.024159
 20
0.405275
 10
0.024159
 20
0.3007849999999999
 10
0.022951
 20
0.292329
 10
0.021139
 20
0.285685
 10
0.018119
 20
0.279646
 10
0.014495
 20
0.274814
 10
0.009664
 20
0.27119
 10
0.004832
 20
0.26817
 10
-0.001208
 20
0.266962
 10
-0.006644
 20
0.266358
 10
-0.01208
 20
0.266358
 10
-0.01812
 20
0.267566
 10
-0.022952
 20
0.269982
 10
-0.027784
 20
0.273606
 10
-0.031407
 20
0.277834
 10
-0.034427
 20
0.283269
 10
-0.036843
 20
0.297161
 10
-0.036843
 20
0.405275
  0
LWPOLYLINE
  5
254
330
24E
100
AcDbEntity
  8
0
 62
    22
420
 14296092
370
     0
100
AcDbPolyline
 90
       61
 70
     1
 43
0.0
 10
-0.273606
 20
0.361184
 10
-0.273606
 20
0.372055
 10
-0.271794
 20
0.382323
 10
-0.269378
 20
0.392591
 10
-0.265754
 20
0.4022550000000001
 10
-0.260922
 20
0.410711
 10
-0.25609
 20
0.419166
 10
-0.25005
 20
0.427018
 10
-0.243407
 20
0.434266
 10
-0.236159
 20
0.440306
 10
-0.228307
 20
0.445742
 10
-0.220455
 20
0.450574
 10
-0.211999
 20
0.4548020000000001
 10
-0.20294
 20
0.457821
 10
-0.19388
 20
0.4602370000000001
 10
-0.174552
 20
0.462653
 10
-0.164284
 20
0.4620490000000001
 10
-0.153413
 20
0.4608410000000001
 10
-0.143749
 20
0.458425
 10
-0.134085
 20
0.4548020000000001
 10
-0.125025
 20
0.450574
 10
-0.115966
 20
0.445742
 10
-0.108114
 20
0.4397020000000001
 10
-0.100866
 20
0.4330580000000001
 10
-0.094222
 20
0.4258100000000001
 10
-0.088182
 20
0.417958
 10
-0.08335
 20
0.4095030000000001
 10
-0.079122
 20
0.401047
 10
-0.075498
 20
0.3919869999999999
 10
-0.073083
 20
0.382323
 10
-0.070667
 20
0.362996
 10
-0.071271
 20
0.352728
 10
-0.073083
 20
0.343064
 10
-0.074894
 20
0.3334
 10
-0.077914
 20
0.324341
 10
-0.082142
 20
0.315885
 10
-0.086974
 20
0.307429
 10
-0.09241
 20
0.300181
 10
-0.099054
 20
0.292933
 10
-0.106302
 20
0.286893
 10
-0.114154
 20
0.281458
 10
-0.122609
 20
0.276626
 10
-0.132273
 20
0.272398
 10
-0.141937
 20
0.269378
 10
-0.152809
 20
0.267566
 10
-0.17576
 20
0.266358
 10
-0.183612
 20
0.266358
 10
-0.19086
 20
0.267566
 10
-0.198712
 20
0.269378
 10
-0.207167
 20
0.271794
 10
-0.215623
 20
0.275418
 10
-0.223475
 20
0.279042
 10
-0.231327
 20
0.283873
 10
-0.239179
 20
0.289309
 10
-0.246427
 20
0.295953
 10
-0.2530699999999999
 20
0.302597
 10
-0.258506
 20
0.310449
 10
-0.263942
 20
0.318905
 10
-0.26817
 20
0.328568
 10
-0.27119
 20
0.338232
 10
-0.273606
 20
0.361184
  0
LWPOLYLINE
  5
255
330
24E
100
AcDbEntity
  8
0
 62
    22
420
 14296092
370
     0
100
AcDbPolyline
 90
      107
 70
     1
 43
0.0
 10
-0.494665
 20
0.361184
 10
-0.494061
 20
0.372055
 10
-0.492249
 20
0.382323
 10
-0.4898330000000001
 20
0.392591
 10
-0.485605
 20
0.4016510000000001
 10
-0.480773
 20
0.410711
 10
-0.474733
 20
0.419166
 10
-0.4680890000000001
 20
0.427018
 10
-0.4608420000000001
 20
0.433662
 10
-0.45299
 20
0.4397020000000001
 10
-0.4445340000000001
 20
0.4451380000000001
 10
-0.435474
 20
0.44997
 10
-0.4258100000000001
 20
0.453594
 10
-0.4161470000000001
 20
0.4566130000000001
 10
-0.4058790000000001
 20
0.4590290000000001
 10
-0.385343
 20
0.4602370000000001
 10
-0.37568
 20
0.4590290000000001
 10
-0.366016
 20
0.457217
 10
-0.35756
 20
0.4548020000000001
 10
-0.349104
 20
0.451782
 10
-0.340648
 20
0.4481580000000001
 10
-0.333401
 20
0.4439300000000001
 10
-0.326757
 20
0.4390979999999999
 10
-0.320717
 20
0.433662
 10
-0.314677
 20
0.4276220000000001
 10
-0.309845
 20
0.420978
 10
-0.305013
 20
0.4137300000000001
 10
-0.3013889999999999
 20
0.4058790000000001
 10
-0.297765
 20
0.398027
 10
-0.295349
 20
0.388967
 10
-0.291725
 20
0.369639
 10
-0.292329
 20
0.366016
 10
-0.292329
 20
0.362392
 10
-0.292329
 20
0.359976
 10
-0.292933
 20
0.35756
 10
-0.293537
 20
0.355144
 10
-0.294745
 20
0.353332
 10
-0.295349
 20
0.352124
 10
-0.296557
 20
0.350312
 10
-0.297765
 20
0.349104
 10
-0.298973
 20
0.3485
 10
-0.3007849999999999
 20
0.347292
 10
-0.302597
 20
0.346688
 10
-0.3044090000000001
 20
0.346084
 10
-0.306825
 20
0.34548
 10
-0.311053
 20
0.344272
 10
-0.428226
 20
0.344272
 10
-0.428226
 20
0.34246
 10
-0.4276220000000001
 20
0.340044
 10
-0.4264140000000001
 20
0.338232
 10
-0.4252060000000001
 20
0.335212
 10
-0.423394
 20
0.332796
 10
-0.420979
 20
0.329776
 10
-0.418563
 20
0.32736
 10
-0.4155430000000001
 20
0.324945
 10
-0.4125230000000001
 20
0.321925
 10
-0.408899
 20
0.320113
 10
-0.405275
 20
0.317697
 10
-0.401047
 20
0.315885
 10
-0.396819
 20
0.314677
 10
-0.3919869999999999
 20
0.314073
 10
-0.381719
 20
0.314677
 10
-0.373868
 20
0.315281
 10
-0.366016
 20
0.3170929999999999
 10
-0.358768
 20
0.318905
 10
-0.352124
 20
0.321321
 10
-0.346084
 20
0.323737
 10
-0.340648
 20
0.325548
 10
-0.335212
 20
0.327964
 10
-0.329777
 20
0.329776
 10
-0.325549
 20
0.330984
 10
-0.320717
 20
0.332192
 10
-0.316489
 20
0.332796
 10
-0.312261
 20
0.332796
 10
-0.308637
 20
0.331588
 10
-0.305013
 20
0.329776
 10
-0.297161
 20
0.323133
 10
-0.294745
 20
0.317697
 10
-0.293537
 20
0.312261
 10
-0.294141
 20
0.307429
 10
-0.295349
 20
0.301993
 10
-0.298369
 20
0.297161
 10
-0.301993
 20
0.292933
 10
-0.306825
 20
0.288101
 10
-0.312865
 20
0.283873
 10
-0.320113
 20
0.28025
 10
-0.327361
 20
0.276626
 10
-0.335816
 20
0.273606
 10
-0.344876
 20
0.27119
 10
-0.35454
 20
0.268774
 10
-0.364204
 20
0.267566
 10
-0.385343
 20
0.266358
 10
-0.399839
 20
0.266962
 10
-0.4131270000000001
 20
0.268774
 10
-0.4246020000000001
 20
0.271794
 10
-0.436078
 20
0.276022
 10
-0.445742
 20
0.280854
 10
-0.4548020000000001
 20
0.286893
 10
-0.4626540000000001
 20
0.292933
 10
-0.4699010000000001
 20
0.300181
 10
-0.475941
 20
0.307429
 10
-0.4813770000000001
 20
0.315281
 10
-0.485605
 20
0.323133
 10
-0.488625
 20
0.330984
 10
-0.4916450000000001
 20
0.338836
 10
-0.493457
 20
0.346688
 10
-0.494665
 20
0.361184
  0
LWPOLYLINE
  5
256
330
24E
100
AcDbEntity
  8
0
 62
    22
420
 14296092
370
     0
100
AcDbPolyline
 90
       84
 70
     1
 43
0.0
 10
-0.506745
 20
0.260318
 10
-0.506745
 20
0.275418
 10
-0.506745
 20
0.4276220000000001
 10
-0.507349
 20
0.4318500000000001
 10
-0.5091600000000001
 20
0.436078
 10
-0.510972
 20
0.440306
 10
-0.513992
 20
0.4439300000000001
 10
-0.517616
 20
0.4475540000000001
 10
-0.5212399999999999
 20
0.44997
 10
-0.526072
 20
0.4523859999999999
 10
-0.5309040000000001
 20
0.454198
 10
-0.535736
 20
0.4554060000000001
 10
-0.5405680000000001
 20
0.4554060000000001
 10
-0.5454
 20
0.4548020000000001
 10
-0.550836
 20
0.453594
 10
-0.5556670000000001
 20
0.451178
 10
-0.5598950000000001
 20
0.4481580000000001
 10
-0.5671430000000001
 20
0.4390979999999999
 10
-0.570163
 20
0.442118
 10
-0.572579
 20
0.4451380000000001
 10
-0.575599
 20
0.4481580000000001
 10
-0.578619
 20
0.450574
 10
-0.5822430000000001
 20
0.4523859999999999
 10
-0.585263
 20
0.4548020000000001
 10
-0.5888869999999999
 20
0.456009
 10
-0.591907
 20
0.457821
 10
-0.5955300000000001
 20
0.458425
 10
-0.59855
 20
0.459633
 10
-0.6015699999999999
 20
0.4602370000000001
 10
-0.60459
 20
0.4608410000000001
 10
-0.6076100000000001
 20
0.461445
 10
-0.61063
 20
0.461445
 10
-0.614858
 20
0.4620490000000001
 10
-0.6251260000000001
 20
0.461445
 10
-0.635394
 20
0.459633
 10
-0.644453
 20
0.4566130000000001
 10
-0.6535130000000001
 20
0.45299
 10
-0.661969
 20
0.4481580000000001
 10
-0.670425
 20
0.4427220000000001
 10
-0.677673
 20
0.436078
 10
-0.6843160000000001
 20
0.4288300000000001
 10
-0.6909600000000001
 20
0.421582
 10
-0.695792
 20
0.4131260000000001
 10
-0.700624
 20
0.404671
 10
-0.704248
 20
0.395007
 10
-0.707268
 20
0.385947
 10
-0.7090800000000001
 20
0.376283
 10
-0.7096840000000001
 20
0.356352
 10
-0.7096840000000001
 20
0.350916
 10
-0.7090800000000001
 20
0.34548
 10
-0.7078720000000001
 20
0.338836
 10
-0.7054560000000001
 20
0.332192
 10
-0.7030400000000001
 20
0.324341
 10
-0.70002
 20
0.3170929999999999
 10
-0.695792
 20
0.309845
 10
-0.6909600000000001
 20
0.302597
 10
-0.6855240000000001
 20
0.295349
 10
-0.6794850000000001
 20
0.288705
 10
-0.672237
 20
0.282665
 10
-0.6643850000000001
 20
0.27723
 10
-0.6553250000000001
 20
0.273002
 10
-0.645057
 20
0.269378
 10
-0.6221060000000001
 20
0.266962
 10
-0.61969
 20
0.266962
 10
-0.6172740000000001
 20
0.266962
 10
-0.614254
 20
0.266962
 10
-0.61063
 20
0.267566
 10
-0.6070060000000001
 20
0.26817
 10
-0.603382
 20
0.269378
 10
-0.599154
 20
0.269982
 10
-0.5955300000000001
 20
0.27119
 10
-0.591303
 20
0.272398
 10
-0.587679
 20
0.27421
 10
-0.5834510000000001
 20
0.275418
 10
-0.5798270000000001
 20
0.27723
 10
-0.5762030000000001
 20
0.279646
 10
-0.5731830000000001
 20
0.281458
 10
-0.5671430000000001
 20
0.286893
 10
-0.5671430000000001
 20
0.25005
 10
-0.5671430000000001
 20
-0.024763
 10
-0.6233140000000001
 20
-0.024763
 10
-0.535132
 20
-0.124421
 10
-0.4463460000000001
 20
-0.024763
 10
-0.506745
 20
-0.024763
  0
LWPOLYLINE
  5
257
330
24E
100
AcDbEntity
  8
0
 62
    22
420
 14296092
370
     0
100
AcDbPolyline
 90
       61
 70
     1
 43
0.0
 10
0.5749950000000001
 20
0.407691
 10
0.5695590000000001
 20
0.407691
 10
0.5647270000000001
 20
0.407087
 10
0.560499
 20
0.4058790000000001
 10
0.556271
 20
0.4040670000000001
 10
0.552647
 20
0.4016510000000001
 10
0.5496270000000001
 20
0.399235
 10
0.546607
 20
0.396215
 10
0.544191
 20
0.392591
 10
0.541775
 20
0.388967
 10
0.5399630000000001
 20
0.385343
 10
0.538755
 20
0.381719
 10
0.537547
 20
0.377491
 10
0.536339
 20
0.373867
 10
0.5357350000000001
 20
0.369639
 10
0.5357350000000001
 20
0.362996
 10
0.5357350000000001
 20
0.35756
 10
0.536339
 20
0.353332
 10
0.537547
 20
0.349104
 10
0.538755
 20
0.344876
 10
0.5405670000000001
 20
0.340648
 10
0.542379
 20
0.337024
 10
0.5447950000000001
 20
0.334004
 10
0.547815
 20
0.330984
 10
0.5502310000000001
 20
0.328568
 10
0.5532510000000001
 20
0.326152
 10
0.556875
 20
0.323737
 10
0.5598950000000001
 20
0.322529
 10
0.563519
 20
0.320717
 10
0.5671430000000001
 20
0.320113
 10
0.5749950000000001
 20
0.319509
 10
0.5792220000000001
 20
0.319509
 10
0.5834500000000001
 20
0.320113
 10
0.587678
 20
0.320717
 10
0.591906
 20
0.322529
 10
0.5955300000000001
 20
0.323737
 10
0.599154
 20
0.326152
 10
0.6027779999999999
 20
0.328568
 10
0.605798
 20
0.330984
 10
0.6082140000000001
 20
0.334004
 10
0.6112340000000001
 20
0.337024
 10
0.613046
 20
0.340648
 10
0.614858
 20
0.344876
 10
0.616066
 20
0.349104
 10
0.6172740000000001
 20
0.353332
 10
0.6184820000000001
 20
0.362996
 10
0.617878
 20
0.36662
 10
0.6172740000000001
 20
0.370243
 10
0.61667
 20
0.374471
 10
0.615462
 20
0.378095
 10
0.614254
 20
0.381719
 10
0.6124420000000001
 20
0.385343
 10
0.61063
 20
0.388967
 10
0.6082140000000001
 20
0.392591
 10
0.605194
 20
0.395611
 10
0.602174
 20
0.398631
 10
0.59855
 20
0.401047
 10
0.5943220000000001
 20
0.403463
 10
0.5900940000000001
 20
0.404671
 10
0.585262
 20
0.406483
 10
0.5749950000000001
 20
0.407691
  0
LWPOLYLINE
  5
258
330
24E
100
AcDbEntity
  8
0
 62
    22
420
 14296092
370
     0
100
AcDbPolyline
 90
       17
 70
     1
 43
0.0
 10
0.125025
 20
0.382927
 10
0.204147
 20
0.382927
 10
0.202335
 20
0.387759
 10
0.200523
 20
0.393195
 10
0.197503
 20
0.398027
 10
0.193275
 20
0.4022550000000001
 10
0.189047
 20
0.4058790000000001
 10
0.183612
 20
0.4095030000000001
 10
0.178176
 20
0.411919
 10
0.172136
 20
0.4131260000000001
 10
0.165492
 20
0.4137300000000001
 10
0.159452
 20
0.4131260000000001
 10
0.152808
 20
0.411919
 10
0.146768
 20
0.408899
 10
0.140729
 20
0.404671
 10
0.134689
 20
0.398631
 10
0.125025
 20
0.382927
  0
LWPOLYLINE
  5
259
330
24E
100
AcDbEntity
  8
0
 62
    22
420
 14296092
370
     0
100
AcDbPolyline
 90
       61
 70
     1
 43
0.0
 10
-0.174552
 20
0.407691
 10
-0.179988
 20
0.407691
 10
-0.18482
 20
0.407087
 10
-0.189652
 20
0.4058790000000001
 10
-0.193276
 20
0.4040670000000001
 10
-0.1969
 20
0.4016510000000001
 10
-0.19992
 20
0.399235
 10
-0.20294
 20
0.396215
 10
-0.205355
 20
0.392591
 10
-0.207167
 20
0.388967
 10
-0.208979
 20
0.385343
 10
-0.210791
 20
0.381719
 10
-0.2113949999999999
 20
0.377491
 10
-0.212603
 20
0.373867
 10
-0.213207
 20
0.369639
 10
-0.213207
 20
0.362996
 10
-0.213207
 20
0.35756
 10
-0.212603
 20
0.353332
 10
-0.2113949999999999
 20
0.349104
 10
-0.210187
 20
0.344876
 10
-0.208375
 20
0.340648
 10
-0.206563
 20
0.337024
 10
-0.204147
 20
0.334004
 10
-0.201732
 20
0.330984
 10
-0.198712
 20
0.328568
 10
-0.195692
 20
0.326152
 10
-0.192672
 20
0.323737
 10
-0.189048
 20
0.322529
 10
-0.186028
 20
0.320717
 10
-0.182404
 20
0.320113
 10
-0.174552
 20
0.319509
 10
-0.170324
 20
0.319509
 10
-0.165492
 20
0.320113
 10
-0.161264
 20
0.320717
 10
-0.157641
 20
0.322529
 10
-0.153413
 20
0.323737
 10
-0.149789
 20
0.326152
 10
-0.146769
 20
0.328568
 10
-0.143749
 20
0.330984
 10
-0.140729
 20
0.334004
 10
-0.138313
 20
0.337024
 10
-0.136501
 20
0.340648
 10
-0.134689
 20
0.344876
 10
-0.133481
 20
0.349104
 10
-0.132273
 20
0.353332
 10
-0.131065
 20
0.362996
 10
-0.131669
 20
0.36662
 10
-0.132273
 20
0.370243
 10
-0.132877
 20
0.374471
 10
-0.134085
 20
0.378095
 10
-0.135293
 20
0.381719
 10
-0.137105
 20
0.385343
 10
-0.138917
 20
0.388967
 10
-0.141333
 20
0.392591
 10
-0.144353
 20
0.395611
 10
-0.147373
 20
0.398631
 10
-0.150997
 20
0.401047
 10
-0.155225
 20
0.403463
 10
-0.159453
 20
0.404671
 10
-0.164284
 20
0.406483
 10
-0.174552
 20
0.407691
  0
LWPOLYLINE
  5
25A
330
24E
100
AcDbEntity
  8
0
 62
    22
420
 14296092
370
     0
100
AcDbPolyline
 90
       17
 70
     1
 43
0.0
 10
-0.431246
 20
0.382927
 10
-0.352124
 20
0.382927
 10
-0.353936
 20
0.387759
 10
-0.355748
 20
0.393195
 10
-0.358768
 20
0.398027
 10
-0.362996
 20
0.4022550000000001
 10
-0.367224
 20
0.4058790000000001
 10
-0.37266
 20
0.4095030000000001
 10
-0.378095
 20
0.411919
 10
-0.384135
 20
0.4131260000000001
 10
-0.390175
 20
0.4137300000000001
 10
-0.396819
 20
0.4131260000000001
 10
-0.4028590000000001
 20
0.411919
 10
-0.4095030000000001
 20
0.408899
 10
-0.4155430000000001
 20
0.404671
 10
-0.420979
 20
0.398631
 10
-0.431246
 20
0.382927
  0
LWPOLYLINE
  5
25B
330
24E
100
AcDbEntity
  8
0
 62
    22
420
 14296092
370
     0
100
AcDbPolyline
 90
       46
 70
     1
 43
0.0
 10
-0.6498890000000001
 20
0.362996
 10
-0.649285
 20
0.35152
 10
-0.6468689999999999
 20
0.34246
 10
-0.6426410000000001
 20
0.334004
 10
-0.6372060000000001
 20
0.327964
 10
-0.631166
 20
0.322529
 10
-0.6239180000000001
 20
0.318905
 10
-0.61667
 20
0.316489
 10
-0.6088180000000002
 20
0.315885
 10
-0.6015699999999999
 20
0.316489
 10
-0.594323
 20
0.318905
 10
-0.5870750000000001
 20
0.322529
 10
-0.5810350000000001
 20
0.327964
 10
-0.575599
 20
0.334004
 10
-0.571371
 20
0.34246
 10
-0.567747
 20
0.362996
 10
-0.568351
 20
0.365412
 10
-0.568351
 20
0.368432
 10
-0.5695590000000001
 20
0.372055
 10
-0.570163
 20
0.375075
 10
-0.5719750000000001
 20
0.3786989999999999
 10
-0.5731830000000001
 20
0.382323
 10
-0.5749950000000001
 20
0.385947
 10
-0.5774110000000001
 20
0.389571
 10
-0.5798270000000001
 20
0.392591
 10
-0.5822430000000001
 20
0.395611
 10
-0.585263
 20
0.398631
 10
-0.5882830000000001
 20
0.401047
 10
-0.591907
 20
0.403463
 10
-0.5955300000000001
 20
0.405275
 10
-0.603382
 20
0.407691
 10
-0.6082140000000001
 20
0.407691
 10
-0.6124420000000001
 20
0.407087
 10
-0.61667
 20
0.406483
 10
-0.620898
 20
0.405275
 10
-0.6251260000000001
 20
0.403463
 10
-0.6287500000000001
 20
0.4016510000000001
 10
-0.632374
 20
0.399235
 10
-0.635998
 20
0.396215
 10
-0.6390170000000001
 20
0.393195
 10
-0.6420370000000001
 20
0.389571
 10
-0.644453
 20
0.385343
 10
-0.646265
 20
0.381719
 10
-0.648077
 20
0.376887
 10
-0.649285
 20
0.372659
 10
-0.6498890000000001
 20
0.362996
  0
LWPOLYLINE
  5
25C
330
24E
100
AcDbEntity
  8
0
 62
     5
370
     0
100
AcDbPolyline
 90
       83
 70
     1
 43
0.0
 10
-0.494665
 20
0.150393
 10
-0.411315
 20
0.150393
 10
0.091806
 20
-0.193276
 10
0.121401
 20
-0.155828
 10
-0.3919869999999999
 20
0.199315
 10
-0.494665
 20
0.199315
 10
-0.494665
 20
0.258506
 10
0.605798
 20
0.25911
 10
0.620294
 20
0.257902
 10
0.6347890000000001
 20
0.25609
 10
0.649285
 20
0.252466
 10
0.6631770000000001
 20
0.247634
 10
0.6770680000000001
 20
0.241594
 10
0.689752
 20
0.234347
 10
0.702436
 20
0.225891
 10
0.713911
 20
0.216831
 10
0.724179
 20
0.206563
 10
0.7338430000000001
 20
0.195691
 10
0.742299
 20
0.183612
 10
0.7495470000000001
 20
0.170928
 10
0.755586
 20
0.158244
 10
0.759814
 20
0.144353
 10
0.7634380000000001
 20
0.115965
 10
0.7634380000000001
 20
-0.105094
 10
0.76223
 20
-0.120193
 10
0.759814
 20
-0.134085
 10
0.75619
 20
-0.147977
 10
0.7507550000000001
 20
-0.16066
 10
0.7441110000000001
 20
-0.173344
 10
0.736259
 20
-0.185424
 10
0.7271989999999999
 20
-0.196296
 10
0.716931
 20
-0.206563
 10
0.7054560000000001
 20
-0.215623
 10
0.693376
 20
-0.224079
 10
0.6800880000000001
 20
-0.231327
 10
0.6668
 20
-0.237367
 10
0.6523050000000001
 20
-0.242198
 10
0.637205
 20
-0.245822
 10
0.605798
 20
-0.248238
 10
-0.660157
 20
-0.248238
 10
-0.676465
 20
-0.247634
 10
-0.6921680000000001
 20
-0.245822
 10
-0.707268
 20
-0.242198
 10
-0.7211600000000001
 20
-0.237367
 10
-0.735051
 20
-0.231327
 10
-0.7483390000000001
 20
-0.224079
 10
-0.760419
 20
-0.215623
 10
-0.77129
 20
-0.206563
 10
-0.781558
 20
-0.196296
 10
-0.7906180000000001
 20
-0.185424
 10
-0.7984700000000001
 20
-0.173344
 10
-0.805114
 20
-0.16066
 10
-0.8105499999999999
 20
-0.147977
 10
-0.8141729999999999
 20
-0.134085
 10
-0.8171929999999999
 20
-0.105094
 10
-0.8171929999999999
 20
0.115965
 10
-0.816589
 20
0.130461
 10
-0.8141729999999999
 20
0.144353
 10
-0.8105499999999999
 20
0.158244
 10
-0.805114
 20
0.171532
 10
-0.7984700000000001
 20
0.183612
 10
-0.7900140000000001
 20
0.195691
 10
-0.7809540000000001
 20
0.206563
 10
-0.770686
 20
0.216831
 10
-0.7598150000000001
 20
0.226495
 10
-0.7477350000000001
 20
0.234347
 10
-0.7344470000000002
 20
0.241594
 10
-0.7211600000000001
 20
0.247634
 10
-0.7066640000000001
 20
0.252466
 10
-0.6915640000000001
 20
0.25609
 10
-0.660157
 20
0.25911
 10
-0.580431
 20
0.258506
 10
-0.580431
 20
0.199315
 10
-0.648077
 20
0.199315
 10
-0.770686
 20
0.051339
 10
-0.7338430000000001
 20
0.023555
 10
-0.628146
 20
0.150393
 10
-0.5810350000000001
 20
0.150393
 10
-0.5810350000000001
 20
-0.013288
 10
-0.654721
 20
-0.013288
 10
-0.53332
 20
-0.145561
 10
-0.4161470000000001
 20
-0.01208
 10
-0.494665
 20
-0.01208
  0
LWPOLYLINE
  5
25D
330
24E
100
AcDbEntity
  8
0
 62
     5
370
     0
100
AcDbPolyline
 90
       92
 70
     1
 43
0.0
 10
0.688544
 20
0.0
 10
0.683712
 20
0.011476
 10
0.6788800000000001
 20
0.021743
 10
0.674048
 20
0.031407
 10
0.6692160000000001
 20
0.039863
 10
0.6643850000000001
 20
0.047715
 10
0.658949
 20
0.054359
 10
0.6535130000000001
 20
0.060399
 10
0.648077
 20
0.066438
 10
0.6420370000000001
 20
0.07127
 10
0.635393
 20
0.075498
 10
0.628145
 20
0.079122
 10
0.620898
 20
0.082746
 10
0.613046
 20
0.08637
 10
0.60459
 20
0.08939
 10
0.58647
 20
0.094826
 10
0.5623110000000001
 20
0.096638
 10
0.535132
 20
0.09543
 10
0.5055360000000001
 20
0.091202
 10
0.474733
 20
0.085162
 10
0.441514
 20
0.07731
 10
0.4076900000000001
 20
0.06825
 10
0.373263
 20
0.057983
 10
0.338836
 20
0.047111
 10
0.3044090000000001
 20
0.036843
 10
0.270586
 20
0.026575
 10
0.23797
 20
0.01812
 10
0.207167
 20
0.010268
 10
0.178176
 20
0.004832
 10
0.152204
 20
0.001812
 10
0.108717
 20
0.004832
 10
0.097846
 20
0.00604
 10
0.086974
 20
0.00906
 10
0.076102
 20
0.01208
 10
0.06523
 20
0.016308
 10
0.054359
 20
0.021139
 10
0.043487
 20
0.027179
 10
0.032615
 20
0.033823
 10
0.022347
 20
0.041675
 10
0.01208
 20
0.050735
 10
0.002416
 20
0.060399
 10
-0.007248
 20
0.07127
 10
-0.016308
 20
0.082746
 10
-0.02416
 20
0.096034
 10
-0.032011
 20
0.109925
 10
-0.044695
 20
0.141937
 10
-0.091202
 20
0.129253
 10
-0.085766
 20
0.109925
 10
-0.078518
 20
0.091806
 10
-0.070063
 20
0.074894
 10
-0.060399
 20
0.059795
 10
-0.050131
 20
0.045299
 10
-0.038655
 20
0.032011
 10
-0.025972
 20
0.020536
 10
-0.013288
 20
0.009664
 10
0.0
 20
0.0
 10
0.013891
 20
-0.00906
 10
0.027783
 20
-0.016912
 10
0.041675
 20
-0.023555
 10
0.056171
 20
-0.029595
 10
0.070062
 20
-0.034427
 10
0.097242
 20
-0.041675
 10
0.123817
 20
-0.045299
 10
0.150392
 20
-0.046507
 10
0.177572
 20
-0.045903
 10
0.205355
 20
-0.042883
 10
0.232534
 20
-0.038051
 10
0.259714
 20
-0.032011
 10
0.287497
 20
-0.025367
 10
0.314677
 20
-0.017516
 10
0.341856
 20
-0.008456
 10
0.369035
 20
0.0
 10
0.396215
 20
0.00906
 10
0.4227899999999999
 20
0.01812
 10
0.449365
 20
0.026575
 10
0.475941
 20
0.034427
 10
0.5272800000000001
 20
0.047111
 10
0.536339
 20
0.048923
 10
0.546003
 20
0.050735
 10
0.5556670000000001
 20
0.050735
 10
0.5647270000000001
 20
0.050131
 10
0.5731830000000001
 20
0.048319
 10
0.5822420000000001
 20
0.045903
 10
0.5900940000000001
 20
0.042279
 10
0.597946
 20
0.038655
 10
0.605194
 20
0.033823
 10
0.6124420000000001
 20
0.027783
 10
0.6184820000000001
 20
0.021743
 10
0.6245210000000001
 20
0.0151
 10
0.629353
 20
0.008456
 10
0.634185
 20
0.000604
 10
0.640829
 20
-0.0151
  0
HATCH
  5
25E
330
24E
100
AcDbEntity
  8
0
 62
    22
420
 14296092
370
     0
100
AcDbHatch
 10
0.0
 20
0.0
 30
0.0
210
0.0
220
0.0
230
1.0
  2
SOLID
 70
     1
 71
     0
 91
       12
 92
        7
 72
     0
 73
     1
 93
       84
 10
-0.506745
 20
0.4276219999999999
 10
-0.507349
 20
0.4318500000000002
 10
-0.5091600000000001
 20
0.436078
 10
-0.510972
 20
0.440306
 10
-0.513992
 20
0.4439299999999999
 10
-0.517616
 20
0.4475540000000002
 10
-0.5212399999999999
 20
0.44997
 10
-0.526072
 20
0.4523859999999999
 10
-0.5309040000000002
 20
0.454198
 10
-0.535736
 20
0.4554060000000001
 10
-0.5405680000000001
 20
0.4554060000000001
 10
-0.5454
 20
0.4548019999999999
 10
-0.550836
 20
0.453594
 10
-0.5556670000000004
 20
0.451178
 10
-0.5598950000000002
 20
0.4481580000000001
 10
-0.5671430000000001
 20
0.4390979999999999
 10
-0.570163
 20
0.442118
 10
-0.572579
 20
0.4451380000000003
 10
-0.575599
 20
0.4481580000000001
 10
-0.578619
 20
0.450574
 10
-0.5822430000000001
 20
0.4523859999999999
 10
-0.585263
 20
0.4548019999999999
 10
-0.5888869999999999
 20
0.456009
 10
-0.591907
 20
0.457821
 10
-0.5955300000000002
 20
0.458425
 10
-0.59855
 20
0.459633
 10
-0.6015699999999999
 20
0.4602370000000002
 10
-0.60459
 20
0.4608410000000001
 10
-0.6076100000000002
 20
0.461445
 10
-0.61063
 20
0.461445
 10
-0.614858
 20
0.4620489999999999
 10
-0.6251260000000001
 20
0.461445
 10
-0.635394
 20
0.459633
 10
-0.644453
 20
0.4566129999999999
 10
-0.6535130000000004
 20
0.45299
 10
-0.661969
 20
0.4481580000000001
 10
-0.670425
 20
0.4427220000000001
 10
-0.677673
 20
0.436078
 10
-0.6843160000000001
 20
0.4288299999999999
 10
-0.6909600000000001
 20
0.421582
 10
-0.695792
 20
0.4131260000000001
 10
-0.700624
 20
0.404671
 10
-0.704248
 20
0.395007
 10
-0.707268
 20
0.3859469999999999
 10
-0.7090800000000002
 20
0.3762829999999999
 10
-0.7096840000000002
 20
0.356352
 10
-0.7096840000000002
 20
0.350916
 10
-0.7090800000000002
 20
0.34548
 10
-0.7078720000000001
 20
0.338836
 10
-0.7054560000000001
 20
0.3321919999999999
 10
-0.7030400000000001
 20
0.324341
 10
-0.70002
 20
0.3170929999999999
 10
-0.695792
 20
0.3098449999999999
 10
-0.6909600000000001
 20
0.302597
 10
-0.6855240000000001
 20
0.295349
 10
-0.6794850000000002
 20
0.288705
 10
-0.672237
 20
0.2826649999999999
 10
-0.6643850000000004
 20
0.27723
 10
-0.6553250000000001
 20
0.273002
 10
-0.645057
 20
0.269378
 10
-0.6221060000000001
 20
0.2669619999999999
 10
-0.61969
 20
0.2669619999999999
 10
-0.6172740000000001
 20
0.2669619999999999
 10
-0.614254
 20
0.2669619999999999
 10
-0.61063
 20
0.267566
 10
-0.6070060000000001
 20
0.26817
 10
-0.603382
 20
0.269378
 10
-0.599154
 20
0.2699819999999999
 10
-0.5955300000000002
 20
0.2711899999999999
 10
-0.591303
 20
0.2723979999999999
 10
-0.587679
 20
0.27421
 10
-0.5834510000000001
 20
0.2754179999999999
 10
-0.5798270000000001
 20
0.27723
 10
-0.5762030000000001
 20
0.279646
 10
-0.5731830000000003
 20
0.281458
 10
-0.5671430000000001
 20
0.286893
 10
-0.5671430000000001
 20
0.25005
 10
-0.5671430000000001
 20
-0.024763
 10
-0.6233140000000002
 20
-0.024763
 10
-0.535132
 20
-0.124421
 10
-0.4463460000000001
 20
-0.024763
 10
-0.506745
 20
-0.024763
 10
-0.506745
 20
0.2603179999999999
 10
-0.506745
 20
0.2754179999999999
 97
        0
 92
       22
 72
     0
 73
     1
 93
       45
 10
-0.568351
 20
0.368432
 10
-0.568351
 20
0.365412
 10
-0.567747
 20
0.362996
 10
-0.571371
 20
0.34246
 10
-0.575599
 20
0.334004
 10
-0.5810350000000001
 20
0.3279639999999999
 10
-0.5870750000000001
 20
0.322529
 10
-0.594323
 20
0.318905
 10
-0.6015699999999999
 20
0.316489
 10
-0.6088180000000003
 20
0.315885
 10
-0.61667
 20
0.316489
 10
-0.6239180000000001
 20
0.318905
 10
-0.631166
 20
0.322529
 10
-0.6372060000000001
 20
0.3279639999999999
 10
-0.6426410000000004
 20
0.334004
 10
-0.6468689999999999
 20
0.34246
 10
-0.649285
 20
0.3515199999999999
 10
-0.6498890000000001
 20
0.362996
 10
-0.649285
 20
0.372659
 10
-0.648077
 20
0.376887
 10
-0.646265
 20
0.3817189999999999
 10
-0.644453
 20
0.385343
 10
-0.6420370000000001
 20
0.389571
 10
-0.6390170000000001
 20
0.393195
 10
-0.635998
 20
0.396215
 10
-0.632374
 20
0.399235
 10
-0.6287500000000003
 20
0.4016510000000002
 10
-0.6251260000000001
 20
0.403463
 10
-0.620898
 20
0.4052749999999999
 10
-0.61667
 20
0.4064829999999999
 10
-0.6124420000000002
 20
0.407087
 10
-0.6082140000000003
 20
0.407691
 10
-0.603382
 20
0.407691
 10
-0.5955300000000002
 20
0.4052749999999999
 10
-0.591907
 20
0.403463
 10
-0.5882830000000002
 20
0.4010469999999999
 10
-0.585263
 20
0.398631
 10
-0.5822430000000001
 20
0.3956109999999999
 10
-0.5798270000000001
 20
0.392591
 10
-0.5774110000000002
 20
0.389571
 10
-0.5749950000000002
 20
0.3859469999999999
 10
-0.5731830000000003
 20
0.382323
 10
-0.5719750000000002
 20
0.3786989999999999
 10
-0.570163
 20
0.3750749999999999
 10
-0.5695590000000001
 20
0.372055
 97
        0
 92
        7
 72
     0
 73
     1
 93
      105
 10
-0.295349
 20
0.388967
 10
-0.2977650000000001
 20
0.398027
 10
-0.3013889999999999
 20
0.4058790000000001
 10
-0.305013
 20
0.4137299999999999
 10
-0.3098449999999999
 20
0.420978
 10
-0.314677
 20
0.4276219999999999
 10
-0.3207169999999999
 20
0.433662
 10
-0.326757
 20
0.4390979999999999
 10
-0.3334010000000001
 20
0.4439299999999999
 10
-0.3406480000000001
 20
0.4481580000000001
 10
-0.3491040000000001
 20
0.451782
 10
-0.35756
 20
0.4548019999999999
 10
-0.366016
 20
0.457217
 10
-0.37568
 20
0.4590290000000001
 10
-0.385343
 20
0.4602370000000002
 10
-0.4058790000000001
 20
0.4590290000000001
 10
-0.4161470000000003
 20
0.4566129999999999
 10
-0.4258100000000001
 20
0.453594
 10
-0.435474
 20
0.44997
 10
-0.4445340000000001
 20
0.4451380000000003
 10
-0.45299
 20
0.4397020000000003
 10
-0.4608420000000001
 20
0.433662
 10
-0.4680890000000001
 20
0.427018
 10
-0.4747330000000002
 20
0.4191659999999999
 10
-0.480773
 20
0.4107109999999999
 10
-0.4856050000000002
 20
0.4016510000000002
 10
-0.4898330000000001
 20
0.392591
 10
-0.4922489999999999
 20
0.382323
 10
-0.494061
 20
0.372055
 10
-0.494665
 20
0.3611839999999999
 10
-0.493457
 20
0.346688
 10
-0.4916450000000001
 20
0.338836
 10
-0.488625
 20
0.3309839999999999
 10
-0.4856050000000002
 20
0.323133
 10
-0.4813769999999999
 20
0.3152809999999999
 10
-0.4759409999999999
 20
0.307429
 10
-0.4699010000000003
 20
0.3001809999999999
 10
-0.4626540000000002
 20
0.292933
 10
-0.4548019999999999
 20
0.286893
 10
-0.4457420000000001
 20
0.2808539999999999
 10
-0.436078
 20
0.276022
 10
-0.4246020000000001
 20
0.271794
 10
-0.4131270000000001
 20
0.268774
 10
-0.3998390000000001
 20
0.2669619999999999
 10
-0.385343
 20
0.266358
 10
-0.364204
 20
0.267566
 10
-0.3545400000000001
 20
0.268774
 10
-0.344876
 20
0.2711899999999999
 10
-0.335816
 20
0.273606
 10
-0.327361
 20
0.2766259999999999
 10
-0.320113
 20
0.28025
 10
-0.3128649999999999
 20
0.2838729999999999
 10
-0.306825
 20
0.2881009999999999
 10
-0.301993
 20
0.292933
 10
-0.298369
 20
0.297161
 10
-0.295349
 20
0.301993
 10
-0.294141
 20
0.307429
 10
-0.2935369999999999
 20
0.312261
 10
-0.294745
 20
0.317697
 10
-0.297161
 20
0.323133
 10
-0.305013
 20
0.329776
 10
-0.3086370000000001
 20
0.331588
 10
-0.312261
 20
0.332796
 10
-0.316489
 20
0.332796
 10
-0.3207169999999999
 20
0.3321919999999999
 10
-0.325549
 20
0.3309839999999999
 10
-0.329777
 20
0.329776
 10
-0.3352120000000001
 20
0.3279639999999999
 10
-0.3406480000000001
 20
0.3255479999999999
 10
-0.3460840000000001
 20
0.3237369999999999
 10
-0.352124
 20
0.321321
 10
-0.358768
 20
0.318905
 10
-0.366016
 20
0.3170929999999999
 10
-0.373868
 20
0.3152809999999999
 10
-0.3817189999999999
 20
0.314677
 10
-0.3919869999999999
 20
0.3140729999999999
 10
-0.396819
 20
0.314677
 10
-0.4010469999999999
 20
0.315885
 10
-0.4052750000000004
 20
0.317697
 10
-0.408899
 20
0.320113
 10
-0.4125230000000001
 20
0.321925
 10
-0.4155430000000001
 20
0.3249449999999999
 10
-0.418563
 20
0.32736
 10
-0.420979
 20
0.329776
 10
-0.423394
 20
0.332796
 10
-0.4252060000000001
 20
0.335212
 10
-0.4264140000000002
 20
0.338232
 10
-0.428226
 20
0.3409499999999999
 10
-0.428226
 20
0.344272
 10
-0.311053
 20
0.344272
 10
-0.306825
 20
0.34548
 10
-0.3044089999999999
 20
0.3460839999999999
 10
-0.302597
 20
0.346688
 10
-0.3007850000000001
 20
0.3472919999999999
 10
-0.2989729999999999
 20
0.3484999999999999
 10
-0.2977650000000001
 20
0.349104
 10
-0.296557
 20
0.350312
 10
-0.295349
 20
0.352124
 10
-0.294745
 20
0.353332
 10
-0.2935369999999999
 20
0.355144
 10
-0.292933
 20
0.35756
 10
-0.2923290000000001
 20
0.359976
 10
-0.2923290000000001
 20
0.3623919999999999
 10
-0.2923290000000001
 20
0.366016
 10
-0.291725
 20
0.3696389999999999
 97
        0
 92
       22
 72
     0
 73
     1
 93
       16
 10
-0.431246
 20
0.382927
 10
-0.420979
 20
0.398631
 10
-0.4155430000000001
 20
0.404671
 10
-0.4095030000000002
 20
0.408899
 10
-0.4028590000000003
 20
0.411919
 10
-0.396819
 20
0.4131260000000001
 10
-0.3901749999999999
 20
0.4137299999999999
 10
-0.384135
 20
0.4131260000000001
 10
-0.3780950000000001
 20
0.411919
 10
-0.37266
 20
0.4095030000000002
 10
-0.367224
 20
0.4058790000000001
 10
-0.362996
 20
0.4022549999999999
 10
-0.358768
 20
0.398027
 10
-0.355748
 20
0.393195
 10
-0.353936
 20
0.387759
 10
-0.352124
 20
0.382927
 97
        0
 92
        7
 72
     0
 73
     1
 93
       60
 10
-0.073083
 20
0.382323
 10
-0.0754980000000001
 20
0.3919869999999999
 10
-0.0791219999999999
 20
0.4010469999999999
 10
-0.08335
 20
0.4095030000000002
 10
-0.088182
 20
0.4179579999999999
 10
-0.094222
 20
0.4258100000000001
 10
-0.100866
 20
0.4330579999999999
 10
-0.108114
 20
0.4397020000000003
 10
-0.115966
 20
0.445742
 10
-0.1250249999999999
 20
0.450574
 10
-0.134085
 20
0.4548019999999999
 10
-0.143749
 20
0.458425
 10
-0.153413
 20
0.4608410000000001
 10
-0.164284
 20
0.4620489999999999
 10
-0.174552
 20
0.462653
 10
-0.1938800000000001
 20
0.4602370000000002
 10
-0.20294
 20
0.457821
 10
-0.211999
 20
0.4548019999999999
 10
-0.2204550000000001
 20
0.450574
 10
-0.228307
 20
0.445742
 10
-0.236159
 20
0.440306
 10
-0.243407
 20
0.4342659999999999
 10
-0.25005
 20
0.427018
 10
-0.2560899999999999
 20
0.4191659999999999
 10
-0.260922
 20
0.4107109999999999
 10
-0.265754
 20
0.4022549999999999
 10
-0.269378
 20
0.392591
 10
-0.271794
 20
0.382323
 10
-0.273606
 20
0.372055
 10
-0.273606
 20
0.3611839999999999
 10
-0.27119
 20
0.338232
 10
-0.26817
 20
0.328568
 10
-0.263942
 20
0.318905
 10
-0.258506
 20
0.310449
 10
-0.2530699999999999
 20
0.302597
 10
-0.246427
 20
0.295953
 10
-0.239179
 20
0.2893089999999999
 10
-0.2313270000000001
 20
0.2838729999999999
 10
-0.223475
 20
0.279042
 10
-0.215623
 20
0.2754179999999999
 10
-0.207167
 20
0.271794
 10
-0.198712
 20
0.269378
 10
-0.19086
 20
0.267566
 10
-0.183612
 20
0.266358
 10
-0.17576
 20
0.266358
 10
-0.152809
 20
0.267566
 10
-0.141937
 20
0.269378
 10
-0.132273
 20
0.2723979999999999
 10
-0.122609
 20
0.2766259999999999
 10
-0.114154
 20
0.281458
 10
-0.106302
 20
0.286893
 10
-0.099054
 20
0.292933
 10
-0.0924100000000001
 20
0.3001809999999999
 10
-0.0869740000000001
 20
0.307429
 10
-0.0821419999999999
 20
0.315885
 10
-0.077914
 20
0.324341
 10
-0.074894
 20
0.3333999999999999
 10
-0.073083
 20
0.3430639999999999
 10
-0.0712710000000001
 20
0.3527279999999999
 10
-0.070667
 20
0.362996
 97
        0
 92
       22
 72
     0
 73
     1
 93
       60
 10
-0.213207
 20
0.3696389999999999
 10
-0.212603
 20
0.3738669999999999
 10
-0.2113949999999999
 20
0.377491
 10
-0.210791
 20
0.3817189999999999
 10
-0.208979
 20
0.385343
 10
-0.207167
 20
0.388967
 10
-0.205355
 20
0.392591
 10
-0.20294
 20
0.396215
 10
-0.19992
 20
0.399235
 10
-0.1969
 20
0.4016510000000002
 10
-0.193276
 20
0.4040670000000003
 10
-0.1896519999999999
 20
0.4058790000000001
 10
-0.18482
 20
0.407087
 10
-0.179988
 20
0.407691
 10
-0.174552
 20
0.407691
 10
-0.164284
 20
0.4064829999999999
 10
-0.1594530000000001
 20
0.404671
 10
-0.1552249999999999
 20
0.403463
 10
-0.150997
 20
0.4010469999999999
 10
-0.147373
 20
0.398631
 10
-0.144353
 20
0.3956109999999999
 10
-0.1413329999999999
 20
0.392591
 10
-0.138917
 20
0.388967
 10
-0.137105
 20
0.385343
 10
-0.135293
 20
0.3817189999999999
 10
-0.134085
 20
0.378095
 10
-0.132877
 20
0.374471
 10
-0.132273
 20
0.370243
 10
-0.131669
 20
0.3666199999999999
 10
-0.131065
 20
0.362996
 10
-0.132273
 20
0.353332
 10
-0.133481
 20
0.349104
 10
-0.1346890000000001
 20
0.344876
 10
-0.136501
 20
0.340648
 10
-0.138313
 20
0.337024
 10
-0.140729
 20
0.334004
 10
-0.143749
 20
0.3309839999999999
 10
-0.146769
 20
0.328568
 10
-0.1497889999999999
 20
0.326152
 10
-0.153413
 20
0.3237369999999999
 10
-0.157641
 20
0.322529
 10
-0.161264
 20
0.3207169999999999
 10
-0.165492
 20
0.320113
 10
-0.170324
 20
0.3195089999999999
 10
-0.174552
 20
0.3195089999999999
 10
-0.182404
 20
0.320113
 10
-0.186028
 20
0.3207169999999999
 10
-0.189048
 20
0.322529
 10
-0.192672
 20
0.3237369999999999
 10
-0.195692
 20
0.326152
 10
-0.198712
 20
0.328568
 10
-0.201732
 20
0.3309839999999999
 10
-0.204147
 20
0.334004
 10
-0.2065630000000001
 20
0.337024
 10
-0.208375
 20
0.340648
 10
-0.210187
 20
0.344876
 10
-0.2113949999999999
 20
0.349104
 10
-0.212603
 20
0.353332
 10
-0.213207
 20
0.35756
 10
-0.213207
 20
0.362996
 97
        0
 92
        7
 72
     0
 73
     1
 93
       68
 10
0.0682499999999999
 20
0.420978
 10
0.068854
 20
0.4252060000000001
 10
0.069458
 20
0.4300379999999999
 10
0.068854
 20
0.43487
 10
0.0676460000000001
 20
0.4390979999999999
 10
0.066438
 20
0.443326
 10
0.064022
 20
0.4475540000000002
 10
0.061606
 20
0.450574
 10
0.058586
 20
0.45299
 10
0.054359
 20
0.4548019999999999
 10
0.050735
 20
0.4554060000000001
 10
0.021139
 20
0.4554060000000001
 10
0.021139
 20
0.4934569999999999
 10
0.018119
 20
0.503724
 10
0.015703
 20
0.5073479999999999
 10
0.0120800000000001
 20
0.510972
 10
0.0072479999999999
 20
0.513388
 10
0.002416
 20
0.5152000000000001
 10
-0.00302
 20
0.5158040000000002
 10
-0.007852
 20
0.5164080000000002
 10
-0.013288
 20
0.5158040000000002
 10
-0.018724
 20
0.5145960000000001
 10
-0.0235559999999999
 20
0.51218
 10
-0.027784
 20
0.5091600000000001
 10
-0.032011
 20
0.5055360000000002
 10
-0.034427
 20
0.501308
 10
-0.0362389999999999
 20
0.495873
 10
-0.036843
 20
0.4898330000000001
 10
-0.036843
 20
0.4554060000000001
 10
-0.056171
 20
0.4554060000000001
 10
-0.0664389999999999
 20
0.4523859999999999
 10
-0.070063
 20
0.44997
 10
-0.072479
 20
0.4463460000000001
 10
-0.074894
 20
0.442118
 10
-0.0761020000000001
 20
0.437286
 10
-0.0767059999999999
 20
0.432454
 10
-0.0761020000000001
 20
0.4276219999999999
 10
-0.0754980000000001
 20
0.4227899999999999
 10
-0.0736859999999999
 20
0.4179579999999999
 10
-0.0718749999999999
 20
0.4137299999999999
 10
-0.0688550000000001
 20
0.4101069999999999
 10
-0.0658350000000001
 20
0.407087
 10
-0.061607
 20
0.4052749999999999
 10
-0.0573790000000001
 20
0.404671
 10
-0.0519430000000001
 20
0.4052749999999999
 10
-0.036843
 20
0.4052749999999999
 10
-0.036843
 20
0.297161
 10
-0.034427
 20
0.283269
 10
-0.031407
 20
0.277834
 10
-0.027784
 20
0.273606
 10
-0.0229520000000001
 20
0.2699819999999999
 10
-0.0181199999999999
 20
0.267566
 10
-0.0120800000000001
 20
0.266358
 10
-0.0066440000000001
 20
0.266358
 10
-0.0012080000000001
 20
0.2669619999999999
 10
0.0048319999999999
 20
0.26817
 10
0.0096639999999999
 20
0.2711899999999999
 10
0.0144949999999999
 20
0.274814
 10
0.018119
 20
0.279646
 10
0.021139
 20
0.285685
 10
0.0229509999999999
 20
0.2923289999999999
 10
0.024159
 20
0.3007849999999999
 10
0.024159
 20
0.4052749999999999
 10
0.048319
 20
0.4052749999999999
 10
0.0573779999999999
 20
0.407087
 10
0.061002
 20
0.4095030000000002
 10
0.064022
 20
0.4125219999999999
 10
0.066438
 20
0.4167500000000003
 97
        0
 92
        7
 72
     0
 73
     1
 93
      105
 10
0.2639420000000001
 20
0.3696389999999999
 10
0.260318
 20
0.388967
 10
0.2579020000000001
 20
0.398027
 10
0.2548820000000001
 20
0.4058790000000001
 10
0.2506539999999999
 20
0.4137299999999999
 10
0.246426
 20
0.420978
 10
0.24099
 20
0.4276219999999999
 10
0.235554
 20
0.433662
 10
0.2295149999999999
 20
0.4390979999999999
 10
0.222267
 20
0.4439299999999999
 10
0.2150190000000001
 20
0.4481580000000001
 10
0.2071670000000001
 20
0.451782
 10
0.1987110000000001
 20
0.4548019999999999
 10
0.189651
 20
0.457217
 10
0.1805920000000001
 20
0.4590290000000001
 10
0.170928
 20
0.4602370000000002
 10
0.1503920000000001
 20
0.4590290000000001
 10
0.1401250000000001
 20
0.4566129999999999
 10
0.1304609999999999
 20
0.453594
 10
0.1214010000000001
 20
0.44997
 10
0.112341
 20
0.4451380000000003
 10
0.103885
 20
0.4397020000000003
 10
0.096034
 20
0.433662
 10
0.088786
 20
0.427018
 10
0.0821419999999999
 20
0.4191659999999999
 10
0.0767059999999999
 20
0.4107109999999999
 10
0.071874
 20
0.4016510000000002
 10
0.0676460000000001
 20
0.392591
 10
0.0646260000000001
 20
0.382323
 10
0.063418
 20
0.372055
 10
0.0628139999999999
 20
0.3611839999999999
 10
0.064022
 20
0.346688
 10
0.0658339999999999
 20
0.338836
 10
0.0682499999999999
 20
0.3309839999999999
 10
0.071874
 20
0.323133
 10
0.0761020000000001
 20
0.3152809999999999
 10
0.0809340000000001
 20
0.307429
 10
0.0869740000000001
 20
0.3001809999999999
 10
0.093618
 20
0.292933
 10
0.101469
 20
0.286893
 10
0.1105290000000001
 20
0.2808539999999999
 10
0.120193
 20
0.276022
 10
0.131065
 20
0.271794
 10
0.1431450000000001
 20
0.268774
 10
0.1564319999999999
 20
0.2669619999999999
 10
0.170928
 20
0.266358
 10
0.1914629999999999
 20
0.267566
 10
0.2017310000000001
 20
0.268774
 10
0.210791
 20
0.2711899999999999
 10
0.219851
 20
0.273606
 10
0.228307
 20
0.2766259999999999
 10
0.2361580000000001
 20
0.28025
 10
0.242802
 20
0.2838729999999999
 10
0.248842
 20
0.2881009999999999
 10
0.2536739999999999
 20
0.292933
 10
0.2579020000000001
 20
0.297161
 10
0.260318
 20
0.301993
 10
0.26213
 20
0.307429
 10
0.26213
 20
0.312261
 10
0.2615259999999999
 20
0.317697
 10
0.25911
 20
0.323133
 10
0.251258
 20
0.329776
 10
0.2476339999999999
 20
0.331588
 10
0.2440100000000001
 20
0.332796
 10
0.2397819999999999
 20
0.332796
 10
0.235554
 20
0.3321919999999999
 10
0.230723
 20
0.3309839999999999
 10
0.2258910000000001
 20
0.329776
 10
0.2204550000000001
 20
0.3279639999999999
 10
0.2150190000000001
 20
0.3255479999999999
 10
0.2095830000000001
 20
0.3237369999999999
 10
0.202939
 20
0.321321
 10
0.1962950000000001
 20
0.318905
 10
0.189047
 20
0.3170929999999999
 10
0.1811959999999999
 20
0.3152809999999999
 10
0.1733439999999999
 20
0.314677
 10
0.163076
 20
0.3140729999999999
 10
0.1582440000000001
 20
0.314677
 10
0.1540159999999999
 20
0.315885
 10
0.149788
 20
0.317697
 10
0.146164
 20
0.320113
 10
0.142541
 20
0.321925
 10
0.139521
 20
0.3249449999999999
 10
0.137105
 20
0.32736
 10
0.134085
 20
0.329776
 10
0.1322730000000001
 20
0.332796
 10
0.1304609999999999
 20
0.335212
 10
0.1292530000000001
 20
0.338232
 10
0.1274409999999999
 20
0.3409499999999999
 10
0.1274409999999999
 20
0.344272
 10
0.245822
 20
0.344272
 10
0.2500499999999999
 20
0.34548
 10
0.251862
 20
0.3460839999999999
 10
0.2536739999999999
 20
0.346688
 10
0.2554859999999999
 20
0.3472919999999999
 10
0.257298
 20
0.3484999999999999
 10
0.2585060000000001
 20
0.349104
 10
0.259714
 20
0.350312
 10
0.260318
 20
0.352124
 10
0.2615259999999999
 20
0.353332
 10
0.26213
 20
0.355144
 10
0.262734
 20
0.35756
 10
0.2633380000000001
 20
0.359976
 10
0.2633380000000001
 20
0.3623919999999999
 10
0.2633380000000001
 20
0.366016
 97
        0
 92
       22
 72
     0
 73
     1
 93
       16
 10
0.1250249999999999
 20
0.382927
 10
0.1346890000000001
 20
0.398631
 10
0.1407289999999999
 20
0.404671
 10
0.146768
 20
0.408899
 10
0.1528080000000001
 20
0.411919
 10
0.1594519999999999
 20
0.4131260000000001
 10
0.165492
 20
0.4137299999999999
 10
0.1721360000000001
 20
0.4131260000000001
 10
0.1781760000000001
 20
0.411919
 10
0.1836120000000001
 20
0.4095030000000002
 10
0.189047
 20
0.4058790000000001
 10
0.1932750000000001
 20
0.4022549999999999
 10
0.197503
 20
0.398027
 10
0.200523
 20
0.393195
 10
0.2023349999999999
 20
0.387759
 10
0.2041470000000001
 20
0.382927
 97
        0
 92
        7
 72
     0
 73
     1
 93
       67
 10
0.4554050000000001
 20
0.4185620000000001
 10
0.4602370000000002
 20
0.429434
 10
0.4608410000000001
 20
0.4342659999999999
 10
0.4602370000000002
 20
0.4390979999999999
 10
0.4590290000000001
 20
0.443326
 10
0.4560089999999999
 20
0.4475540000000002
 10
0.4529890000000001
 20
0.450574
 10
0.448761
 20
0.453594
 10
0.4439299999999999
 20
0.456009
 10
0.4390979999999999
 20
0.457217
 10
0.434266
 20
0.458425
 10
0.4288300000000003
 20
0.458425
 10
0.423394
 20
0.457821
 10
0.4185620000000001
 20
0.4566129999999999
 10
0.4137299999999999
 20
0.454198
 10
0.409502
 20
0.451178
 10
0.3485
 20
0.3968189999999999
 10
0.3485
 20
0.512784
 10
0.34548
 20
0.523656
 10
0.34246
 20
0.528488
 10
0.3388360000000001
 20
0.5321120000000003
 10
0.334608
 20
0.535132
 10
0.329172
 20
0.537548
 10
0.323736
 20
0.5393600000000001
 10
0.3183
 20
0.539964
 10
0.3128649999999999
 20
0.5393600000000001
 10
0.307429
 20
0.5381520000000001
 10
0.301993
 20
0.53634
 10
0.2977650000000001
 20
0.53332
 10
0.294141
 20
0.5296960000000001
 10
0.291121
 20
0.524864
 10
0.289309
 20
0.519428
 10
0.288705
 20
0.512784
 10
0.288705
 20
0.303805
 10
0.2899129999999999
 20
0.288705
 10
0.2923290000000001
 20
0.2826649999999999
 10
0.2959529999999999
 20
0.277834
 10
0.300181
 20
0.273606
 10
0.305617
 20
0.270586
 10
0.311053
 20
0.268774
 10
0.316489
 20
0.26817
 10
0.3225279999999999
 20
0.26817
 10
0.3279639999999999
 20
0.269378
 10
0.3333999999999999
 20
0.2711899999999999
 10
0.3382320000000001
 20
0.27421
 10
0.34246
 20
0.277834
 10
0.34548
 20
0.2826649999999999
 10
0.3472919999999999
 20
0.288705
 10
0.3485
 20
0.295349
 10
0.3485
 20
0.355144
 10
0.4125220000000003
 20
0.2838729999999999
 10
0.4252060000000001
 20
0.273606
 10
0.4318500000000002
 20
0.270586
 10
0.4378899999999999
 20
0.269378
 10
0.4439299999999999
 20
0.269378
 10
0.4499690000000001
 20
0.2699819999999999
 10
0.4554050000000001
 20
0.271794
 10
0.4602370000000002
 20
0.27421
 10
0.4644650000000001
 20
0.277834
 10
0.4680890000000001
 20
0.281458
 10
0.470505
 20
0.285685
 10
0.4723169999999999
 20
0.290517
 10
0.4729210000000001
 20
0.2947449999999999
 10
0.4723169999999999
 20
0.299577
 10
0.470505
 20
0.303805
 10
0.4674849999999999
 20
0.3086369999999999
 10
0.4058780000000004
 20
0.3750749999999999
 97
        0
 92
        7
 72
     0
 73
     1
 93
       60
 10
0.6764640000000001
 20
0.382323
 10
0.674048
 20
0.3919869999999999
 10
0.6704240000000004
 20
0.4010469999999999
 10
0.6661960000000004
 20
0.4095030000000002
 10
0.661365
 20
0.4179579999999999
 10
0.6553250000000001
 20
0.4258100000000001
 10
0.6486810000000001
 20
0.4330579999999999
 10
0.6414330000000003
 20
0.4397020000000003
 10
0.6335810000000001
 20
0.445742
 10
0.6251250000000002
 20
0.450574
 10
0.616066
 20
0.4548019999999999
 10
0.6064020000000001
 20
0.458425
 10
0.5961340000000002
 20
0.4608410000000001
 10
0.5858660000000003
 20
0.4620489999999999
 10
0.5749950000000002
 20
0.462653
 10
0.5556670000000004
 20
0.4602370000000002
 10
0.546607
 20
0.457821
 10
0.537547
 20
0.4548019999999999
 10
0.5290919999999999
 20
0.450574
 10
0.5212400000000002
 20
0.445742
 10
0.513388
 20
0.440306
 10
0.5061399999999999
 20
0.4342659999999999
 10
0.4994959999999999
 20
0.427018
 10
0.4934560000000002
 20
0.4191659999999999
 10
0.488625
 20
0.4107109999999999
 10
0.483793
 20
0.4022549999999999
 10
0.4801690000000002
 20
0.392591
 10
0.477753
 20
0.382323
 10
0.4759409999999999
 20
0.372055
 10
0.4759409999999999
 20
0.3611839999999999
 10
0.478357
 20
0.338232
 10
0.4813769999999999
 20
0.328568
 10
0.4856050000000002
 20
0.318905
 10
0.4904370000000001
 20
0.310449
 10
0.496476
 20
0.302597
 10
0.5031200000000001
 20
0.295953
 10
0.5103680000000002
 20
0.2893089999999999
 10
0.5176159999999999
 20
0.2838729999999999
 10
0.5254680000000001
 20
0.279042
 10
0.533924
 20
0.2754179999999999
 10
0.5417749999999999
 20
0.271794
 10
0.5502310000000003
 20
0.269378
 10
0.5580829999999999
 20
0.267566
 10
0.5653310000000003
 20
0.266358
 10
0.5731830000000003
 20
0.266358
 10
0.5961340000000002
 20
0.267566
 10
0.6070060000000002
 20
0.269378
 10
0.6172740000000001
 20
0.2723979999999999
 10
0.626333
 20
0.2766259999999999
 10
0.6353930000000001
 20
0.281458
 10
0.6432449999999999
 20
0.286893
 10
0.650493
 20
0.292933
 10
0.6571370000000001
 20
0.3001809999999999
 10
0.6625730000000001
 20
0.307429
 10
0.6674039999999999
 20
0.315885
 10
0.671028
 20
0.324341
 10
0.6746520000000002
 20
0.3333999999999999
 10
0.6764640000000001
 20
0.3430639999999999
 10
0.6782759999999999
 20
0.3527279999999999
 10
0.6788800000000002
 20
0.362996
 97
        0
 92
       22
 72
     0
 73
     1
 93
       60
 10
0.5363389999999999
 20
0.3738669999999999
 10
0.537547
 20
0.377491
 10
0.5387550000000001
 20
0.3817189999999999
 10
0.5399630000000001
 20
0.385343
 10
0.5417749999999999
 20
0.388967
 10
0.5441910000000001
 20
0.392591
 10
0.546607
 20
0.396215
 10
0.5496270000000001
 20
0.399235
 10
0.5526469999999999
 20
0.4016510000000002
 10
0.556271
 20
0.4040670000000003
 10
0.5604990000000001
 20
0.4058790000000001
 10
0.5647270000000001
 20
0.407087
 10
0.5695590000000001
 20
0.407691
 10
0.5749950000000002
 20
0.407691
 10
0.585262
 20
0.4064829999999999
 10
0.5900940000000002
 20
0.404671
 10
0.5943220000000001
 20
0.403463
 10
0.59855
 20
0.4010469999999999
 10
0.602174
 20
0.398631
 10
0.605194
 20
0.3956109999999999
 10
0.6082140000000003
 20
0.392591
 10
0.61063
 20
0.388967
 10
0.6124420000000002
 20
0.385343
 10
0.6142539999999999
 20
0.3817189999999999
 10
0.615462
 20
0.378095
 10
0.61667
 20
0.374471
 10
0.6172740000000001
 20
0.370243
 10
0.6178780000000002
 20
0.3666199999999999
 10
0.6184820000000001
 20
0.362996
 10
0.6172740000000001
 20
0.353332
 10
0.616066
 20
0.349104
 10
0.6148579999999999
 20
0.344876
 10
0.613046
 20
0.340648
 10
0.6112340000000001
 20
0.337024
 10
0.6082140000000003
 20
0.334004
 10
0.6057980000000001
 20
0.3309839999999999
 10
0.6027779999999999
 20
0.328568
 10
0.599154
 20
0.326152
 10
0.5955300000000002
 20
0.3237369999999999
 10
0.591906
 20
0.322529
 10
0.587678
 20
0.3207169999999999
 10
0.5834500000000002
 20
0.320113
 10
0.5792220000000004
 20
0.3195089999999999
 10
0.5749950000000002
 20
0.3195089999999999
 10
0.5671430000000001
 20
0.320113
 10
0.5635189999999999
 20
0.3207169999999999
 10
0.5598950000000002
 20
0.322529
 10
0.556875
 20
0.3237369999999999
 10
0.5532510000000001
 20
0.326152
 10
0.5502310000000003
 20
0.328568
 10
0.547815
 20
0.3309839999999999
 10
0.5447950000000003
 20
0.334004
 10
0.542379
 20
0.337024
 10
0.5405670000000004
 20
0.340648
 10
0.5387550000000001
 20
0.344876
 10
0.537547
 20
0.349104
 10
0.5363389999999999
 20
0.353332
 10
0.5357349999999999
 20
0.35756
 10
0.5357349999999999
 20
0.362996
 10
0.5357349999999999
 20
0.3696389999999999
 97
        0
 75
     0
 76
     1
 47
0.003361
 98
       12
 10
-0.527099
 20
0.375711
 10
-0.527099
 20
0.375711
 10
-0.466569
 20
0.382432
 10
-0.466569
 20
0.382432
 10
-0.224451
 20
0.37235
 10
-0.224451
 20
0.37235
 10
0.0042169999999999
 20
0.4193979999999999
 10
0.078198
 20
0.3689899999999999
 10
0.078198
 20
0.3689899999999999
 10
0.320316
 20
0.382432
 10
0.501905
 20
0.3790709999999999
 10
0.501905
 20
0.3790709999999999
  0
HATCH
  5
25F
330
24E
100
AcDbEntity
  8
0
 62
   179
420
  1844325
370
     0
100
AcDbHatch
 10
0.0
 20
0.0
 30
0.0
210
0.0
220
0.0
230
1.0
  2
SOLID
 70
     1
 71
     0
 91
        2
 92
        7
 72
     0
 73
     1
 93
       83
 10
-0.494665
 20
0.258506
 10
-0.494665
 20
0.199315
 10
-0.3919869999999999
 20
0.199315
 10
0.1214010000000001
 20
-0.155828
 10
0.0918060000000001
 20
-0.193276
 10
-0.411315
 20
0.150393
 10
-0.494665
 20
0.150393
 10
-0.494665
 20
-0.01208
 10
-0.4161470000000003
 20
-0.01208
 10
-0.53332
 20
-0.145561
 10
-0.654721
 20
-0.013288
 10
-0.5810350000000001
 20
-0.013288
 10
-0.5810350000000001
 20
0.150393
 10
-0.628146
 20
0.150393
 10
-0.7338430000000003
 20
0.023555
 10
-0.770686
 20
0.051339
 10
-0.648077
 20
0.199315
 10
-0.580431
 20
0.199315
 10
-0.580431
 20
0.258506
 10
-0.660157
 20
0.25911
 10
-0.6915640000000001
 20
0.2560899999999999
 10
-0.7066640000000001
 20
0.252466
 10
-0.7211600000000003
 20
0.247634
 10
-0.7344470000000002
 20
0.241594
 10
-0.7477350000000002
 20
0.234347
 10
-0.7598150000000004
 20
0.226495
 10
-0.770686
 20
0.216831
 10
-0.7809540000000002
 20
0.206563
 10
-0.7900140000000003
 20
0.195691
 10
-0.7984700000000001
 20
0.183612
 10
-0.805114
 20
0.171532
 10
-0.8105499999999999
 20
0.158244
 10
-0.8141729999999999
 20
0.144353
 10
-0.816589
 20
0.130461
 10
-0.8171929999999999
 20
0.115965
 10
-0.8171929999999999
 20
-0.105094
 10
-0.8141729999999999
 20
-0.134085
 10
-0.8105499999999999
 20
-0.147977
 10
-0.805114
 20
-0.16066
 10
-0.7984700000000001
 20
-0.173344
 10
-0.7906180000000002
 20
-0.185424
 10
-0.781558
 20
-0.196296
 10
-0.77129
 20
-0.206563
 10
-0.760419
 20
-0.215623
 10
-0.7483390000000001
 20
-0.224079
 10
-0.735051
 20
-0.231327
 10
-0.7211600000000003
 20
-0.237367
 10
-0.707268
 20
-0.242198
 10
-0.6921680000000002
 20
-0.245822
 10
-0.676465
 20
-0.247634
 10
-0.660157
 20
-0.248238
 10
0.6057980000000001
 20
-0.248238
 10
0.637205
 20
-0.245822
 10
0.6523050000000003
 20
-0.242198
 10
0.6668
 20
-0.237367
 10
0.6800880000000003
 20
-0.231327
 10
0.693376
 20
-0.224079
 10
0.7054559999999999
 20
-0.215623
 10
0.716931
 20
-0.206563
 10
0.7271990000000002
 20
-0.196296
 10
0.736259
 20
-0.185424
 10
0.7441110000000001
 20
-0.173344
 10
0.7507550000000001
 20
-0.16066
 10
0.7561900000000003
 20
-0.147977
 10
0.759814
 20
-0.134085
 10
0.76223
 20
-0.120193
 10
0.7634380000000001
 20
-0.105094
 10
0.7634380000000001
 20
0.115965
 10
0.759814
 20
0.144353
 10
0.7555860000000001
 20
0.158244
 10
0.7495470000000001
 20
0.170928
 10
0.742299
 20
0.183612
 10
0.7338430000000003
 20
0.195691
 10
0.7241789999999999
 20
0.206563
 10
0.713911
 20
0.216831
 10
0.7024360000000001
 20
0.225891
 10
0.689752
 20
0.234347
 10
0.6770680000000004
 20
0.241594
 10
0.6631770000000003
 20
0.247634
 10
0.6492849999999999
 20
0.252466
 10
0.6347890000000001
 20
0.2560899999999999
 10
0.6202939999999999
 20
0.257902
 10
0.6057980000000001
 20
0.25911
 97
        0
 92
       22
 72
     0
 73
     1
 93
       91
 10
-0.091202
 20
0.129253
 10
-0.0446949999999999
 20
0.141937
 10
-0.032011
 20
0.109925
 10
-0.02416
 20
0.096034
 10
-0.016308
 20
0.082746
 10
-0.0072479999999999
 20
0.07127
 10
0.002416
 20
0.060399
 10
0.0120800000000001
 20
0.050735
 10
0.0223469999999999
 20
0.041675
 10
0.0326150000000001
 20
0.033823
 10
0.0434870000000001
 20
0.027179
 10
0.054359
 20
0.021139
 10
0.0652299999999999
 20
0.016308
 10
0.0761020000000001
 20
0.01208
 10
0.0869740000000001
 20
0.00906
 10
0.0978460000000001
 20
0.00604
 10
0.108717
 20
0.004832
 10
0.152204
 20
0.001812
 10
0.1781760000000001
 20
0.004832
 10
0.2071670000000001
 20
0.010268
 10
0.23797
 20
0.01812
 10
0.270586
 20
0.026575
 10
0.3044089999999999
 20
0.036843
 10
0.3388360000000001
 20
0.047111
 10
0.3732630000000001
 20
0.057983
 10
0.4076900000000001
 20
0.06825
 10
0.441514
 20
0.07731
 10
0.4747330000000002
 20
0.085162
 10
0.5055360000000002
 20
0.091202
 10
0.535132
 20
0.09543
 10
0.5623110000000004
 20
0.096638
 10
0.58647
 20
0.094826
 10
0.60459
 20
0.08939
 10
0.613046
 20
0.08637
 10
0.620898
 20
0.082746
 10
0.628145
 20
0.079122
 10
0.6390170000000001
 20
0.073686
 10
0.648077
 20
0.066438
 10
0.6535130000000004
 20
0.060399
 10
0.658949
 20
0.054359
 10
0.6643850000000004
 20
0.047715
 10
0.6692160000000003
 20
0.039863
 10
0.674048
 20
0.031407
 10
0.6788800000000002
 20
0.021743
 10
0.6837119999999999
 20
0.011476
 10
0.688544
 20
0.0
 10
0.6408290000000001
 20
-0.0151
 10
0.634185
 20
0.000604
 10
0.629353
 20
0.008456
 10
0.6245210000000001
 20
0.0151
 10
0.6184820000000001
 20
0.021743
 10
0.6124420000000002
 20
0.027783
 10
0.605194
 20
0.033823
 10
0.5979459999999999
 20
0.038655
 10
0.5900940000000002
 20
0.042279
 10
0.5822420000000001
 20
0.045903
 10
0.5731830000000003
 20
0.048319
 10
0.5647270000000001
 20
0.050131
 10
0.5556670000000004
 20
0.050735
 10
0.546003
 20
0.050735
 10
0.5363389999999999
 20
0.048923
 10
0.5272800000000001
 20
0.047111
 10
0.4759409999999999
 20
0.034427
 10
0.449365
 20
0.026575
 10
0.4227899999999999
 20
0.01812
 10
0.396215
 20
0.00906
 10
0.369035
 20
0.0
 10
0.3418559999999999
 20
-0.008456
 10
0.3146770000000001
 20
-0.017516
 10
0.2874970000000001
 20
-0.025367
 10
0.259714
 20
-0.032011
 10
0.232534
 20
-0.038051
 10
0.205355
 20
-0.042883
 10
0.1775720000000001
 20
-0.045903
 10
0.1503920000000001
 20
-0.046507
 10
0.1238170000000001
 20
-0.045299
 10
0.0972420000000001
 20
-0.041675
 10
0.0700620000000001
 20
-0.034427
 10
0.056171
 20
-0.029595
 10
0.0416749999999999
 20
-0.023555
 10
0.0277829999999999
 20
-0.016912
 10
0.0138910000000001
 20
-0.00906
 10
0.0
 20
0.0
 10
-0.013288
 20
0.009664
 10
-0.0259720000000001
 20
0.020536
 10
-0.0386550000000001
 20
0.032011
 10
-0.0501309999999999
 20
0.045299
 10
-0.0603990000000001
 20
0.059795
 10
-0.070063
 20
0.074894
 10
-0.0785180000000001
 20
0.091806
 10
-0.085766
 20
0.109925
 97
        0
 75
     0
 76
     1
 47
0.003361
 98
        2
 10
-0.11348
 20
0.180797
 10
-0.11348
 20
0.180797
  0
ENDBLK
  5
260
330
24E
100
AcDbEntity
  8
0
100
AcDbBlockEnd
  0
ENDSEC
  0
SECTION
  2
ENTITIES
  0
INSERT
  5
262
330
1F
100
AcDbEntity
  8
0
100
AcDbBlockReference
  2
logo
 10
0.0
 20
0.0
 30
0.0
 41
10.5
 42
10.5
 43
10.0
  0
ENDSEC
  0
SECTION
  2
OBJECTS
  0
DICTIONARY
  5
C
330
0
100
AcDbDictionary
281
     1
  3
ACAD_CIP_PREVIOUS_PRODUCT_INFO
350
191
  3
ACAD_COLOR
350
6C
  3
ACAD_DETAILVIEWSTYLE
350
1D9
  3
ACAD_GROUP
350
D
  3
ACAD_LAYOUT
350
1A
  3
ACAD_MATERIAL
350
6B
  3
ACAD_MLEADERSTYLE
350
CC
  3
ACAD_MLINESTYLE
350
17
  3
ACAD_PLOTSETTINGS
350
19
  3
ACAD_PLOTSTYLENAME
350
E
  3
ACAD_SCALELIST
350
A6
  3
ACAD_SECTIONVIEWSTYLE
350
1D6
  3
ACAD_TABLESTYLE
350
92
  3
ACAD_VISUALSTYLE
350
14E
  3
AcDbVariableDictionary
350
59
  0
DICTIONARY
  5
F6
330
2
100
AcDbDictionary
280
     1
281
     1
  3
ACAD_LAYERSTATES
360
F7
  0
XRECORD
  5
191
102
{ACAD_REACTORS
330
C
102
}
330
C
100
AcDbXrecord
280
     1
300
ACD
300
2013
300
ACD_F_S
  0
DICTIONARY
  5
6C
102
{ACAD_REACTORS
330
C
102
}
330
C
100
AcDbDictionary
281
     1
  0
DICTIONARY
  5
1D9
102
{ACAD_REACTORS
330
C
102
}
330
C
100
AcDbDictionary
281
     1
  3
Imperial24
350
1DA
  0
DICTIONARY
  5
D
102
{ACAD_REACTORS
330
C
102
}
330
C
100
AcDbDictionary
281
     1
  0
DICTIONARY
  5
1A
102
{ACAD_REACTORS
330
C
102
}
330
C
100
AcDbDictionary
281
     1
  3
Arkusz1
350
1CD
  3
Arkusz2
350
1D2
  3
Model
350
22
  0
DICTIONARY
  5
6B
102
{ACAD_REACTORS
330
C
102
}
330
C
100
AcDbDictionary
281
     1
  3
ByBlock
350
13E
  3
ByLayer
350
136
  3
Global
350
146
  0
DICTIONARY
  5
CC
102
{ACAD_REACTORS
330
C
102
}
330
C
100
AcDbDictionary
281
     1
  3
Annotative
350
226
  3
Standard
350
CF
  0
DICTIONARY
  5
17
102
{ACAD_REACTORS
330
C
102
}
330
C
100
AcDbDictionary
281
     1
  3
Standard
350
18
  0
DICTIONARY
  5
19
102
{ACAD_REACTORS
330
C
102
}
330
C
100
AcDbDictionary
281
     1
  0
ACDBDICTIONARYWDFLT
  5
E
102
{ACAD_REACTORS
330
C
102
}
330
C
100
AcDbDictionary
281
     1
  3
Normal
350
F
100
AcDbDictionaryWithDefault
340
F
  0
DICTIONARY
  5
A6
102
{ACAD_REACTORS
330
C
102
}
330
C
100
AcDbDictionary
281
     1
  3
A0
350
A7
  3
A1
350
A8
  3
A2
350
A9
  3
A3
350
AA
  3
A4
350
AB
  3
A5
350
AC
  3
A6
350
AD
  3
A7
350
AE
  3
A8
350
AF
  3
A9
350
B0
  3
B0
350
B1
  3
B1
350
B2
  3
B2
350
B3
  3
B3
350
B4
  3
B4
350
B5
  3
B5
350
B6
  3
B6
350
B7
  3
B7
350
B8
  3
B8
350
B9
  3
B9
350
BA
  3
C0
350
BB
  3
C1
350
BC
  3
C2
350
BD
  3
C3
350
BE
  3
C4
350
BF
  3
C5
350
C0
  3
C6
350
C1
  3
C7
350
C2
  3
C8
350
C3
  3
C9
350
C4
  3
D0
350
C5
  3
D1
350
C6
  3
D2
350
C7
  0
DICTIONARY
  5
1D6
102
{ACAD_REACTORS
330
C
102
}
330
C
100
AcDbDictionary
281
     1
  3
Imperial24
350
1D8
  0
DICTIONARY
  5
92
102
{ACAD_REACTORS
330
C
102
}
330
C
100
AcDbDictionary
281
     1
  3
Standard
350
93
  0
DICTIONARY
  5
14E
102
{ACAD_REACTORS
330
C
102
}
330
C
100
AcDbDictionary
281
     1
  3
2dWireframe
350
154
  3
3D Hidden
350
156
  3
3dWireframe
350
155
  3
Basic
350
153
  3
Brighten
350
15A
  3
ColorChange
350
15E
  3
Conceptual
350
157
  3
Dim
350
159
  3
EdgeColorOff
350
161
  3
Facepattern
350
15D
  3
Flat
350
14F
  3
FlatWithEdges
350
150
  3
Gouraud
350
151
  3
GouraudWithEdges
350
152
  3
Hidden
350
185
  3
JitterOff
350
15F
  3
Linepattern
350
15C
  3
OverhangOff
350
160
  3
Realistic
350
158
  3
Shaded
350
18A
  3
Shaded with edges
350
189
  3
Shades of Gray
350
186
  3
Sketchy
350
187
  3
Thicken
350
15B
  3
Wireframe
350
184
  3
X-Ray
350
188
  0
DICTIONARY
  5
59
102
{ACAD_REACTORS
330
C
102
}
330
C
100
AcDbDictionary
281
     1
  3
CANNOSCALE
350
CB
  3
CMLEADERSTYLE
350
DA
  3
CTABLESTYLE
350
98
  3
CVIEWDETAILSTYLE
350
1F8
  3
CVIEWSECTIONSTYLE
350
1F9
  3
DIMASSOC
350
9A
  3
HIDETEXT
350
5E
  3
XCLIPFRAME
350
D0
  0
DICTIONARY
  5
F7
102
{ACAD_REACTORS
330
F6
102
}
330
F6
100
AcDbDictionary
281
     1
  0
ACDBDETAILVIEWSTYLE
  5
1DA
102
{ACAD_REACTORS
330
1D9
102
}
330
1D9
100
AcDbModelDocViewStyle
 70
     0
  3
Imperial24
290
     1
300
Metric50
 90
        0
100
AcDbDetailViewStyle
 70
     0
 71
     0
 90
        3
 71
     1
340
11
 62
   256
 40
0.24
340
0
 62
   256
 40
0.24
300

 40
0.36
280
     3
 71
     2
340
16
 90
       25
 62
   256
 71
     3
340
11
 62
   256
 40
0.24
 90
        1
 40
0.75
 90
        1
300
%<\AcVar ViewType \f "%tc1">% %<\AcVar ViewDetailId>%\PSCALE %<\AcVar ViewScale \f "%sn">%
 71
     4
340
16
 90
       25
 62
   256
340
16
 90
       25
 62
   256
280
     0
  0
LAYOUT
  5
1CD
102
{ACAD_REACTORS
330
1A
102
}
330
1A
100
AcDbPlotSettings
  1

  2
None
  4
Letter_(8.50_x_11.00_Inches)
  6

 40
0.0
 41
0.0
 42
0.0
 43
0.0
 44
0.0
 45
0.0
 46
0.0
 47
0.0
 48
0.0
 49
0.0
140
0.0
141
0.0
142
1.0
143
1.0
 70
   688
 72
     0
 73
     1
 74
     5
  7

 75
    16
 76
     0
 77
     2
 78
   300
147
1.0
148
0.0
149
0.0
100
AcDbLayout
  1
Arkusz1
 70
     1
 71
     1
 10
-0.25
 20
-0.25
 11
10.75
 21
8.25
 12
0.0
 22
0.0
 32
0.0
 14
1.049999960629921
 24
0.7999999606299211
 34
0.0
 15
9.449999645669292
 25
7.199999645669291
 35
0.0
146
0.0
 13
0.0
 23
0.0
 33
0.0
 16
1.0
 26
0.0
 36
0.0
 17
0.0
 27
1.0
 37
0.0
 76
     0
330
1CC
  0
LAYOUT
  5
1D2
102
{ACAD_REACTORS
330
1A
102
}
330
1A
100
AcDbPlotSettings
  1

  2
None
  4
Letter_(8.50_x_11.00_Inches)
  6

 40
0.0
 41
0.0
 42
0.0
 43
0.0
 44
0.0
 45
0.0
 46
0.0
 47
0.0
 48
0.0
 49
0.0
140
0.0
141
0.0
142
1.0
143
1.0
 70
   688
 72
     0
 73
     1
 74
     5
  7

 75
    16
 76
     0
 77
     2
 78
   300
147
1.0
148
0.0
149
0.0
100
AcDbLayout
  1
Arkusz2
 70
     1
 71
     2
 10
-0.25
 20
-0.25
 11
10.75
 21
8.25
 12
0.0
 22
0.0
 32
0.0
 14
1.049999960629921
 24
0.7999999606299211
 34
0.0
 15
9.449999645669292
 25
7.199999645669291
 35
0.0
146
0.0
 13
0.0
 23
0.0
 33
0.0
 16
1.0
 26
0.0
 36
0.0
 17
0.0
 27
1.0
 37
0.0
 76
     0
330
1D1
  0
LAYOUT
  5
22
102
{ACAD_REACTORS
330
1A
102
}
330
1A
100
AcDbPlotSettings
  1

  2
none_device
  4
Letter_(8.50_x_11.00_Inches)
  6

 40
6.349999904632568
 41
6.349999904632568
 42
6.350006103515625
 43
6.350006103515625
 44
215.8999938964844
 45
279.3999938964844
 46
0.0
 47
0.0
 48
0.0
 49
0.0
140
0.0
141
0.0
142
1.0
143
5.139006275066972
 70
 11952
 72
     0
 73
     0
 74
     0
  7

 75
     0
 76
     0
 77
     2
 78
   300
147
0.1945901496271218
148
109.3743777628602
149
1.414224822200865
100
AcDbLayout
  1
Model
 70
     1
 71
     0
 10
0.0
 20
0.0
 11
12.0
 21
9.0
 12
0.0
 22
0.0
 32
0.0
 14
0.0
 24
0.0
 34
0.0
 15
12.0
 25
9.0
 35
0.0
146
0.0
 13
0.0
 23
0.0
 33
0.0
 16
1.0
 26
0.0
 36
0.0
 17
0.0
 27
1.0
 37
0.0
 76
     0
330
1F
331
1BB
1001
ACAD_PSEXT
1000
aden
1000
aden
1000
Nie mona zastosowa.
1000
Wybierz nazw konfiguracji nowego plotera, aby wydrukowa arkusz.
1070
     0
  0
MATERIAL
  5
13E
102
{ACAD_REACTORS
330
6B
102
}
330
6B
100
AcDbMaterial
  1
ByBlock
 72
     0
 73
     2
 43
0.0208333333333333
 43
0.0
 43
0.0
 43
0.0
 43
0.0
 43
0.0208333333333333
 43
0.0
 43
0.0
 43
0.0
 43
0.0
 43
1.0
 43
0.0
 43
0.0
 43
0.0
 43
0.0
 43
1.0
 77
     0
 78
     2
 47
0.0208333333333333
 47
0.0
 47
0.0
 47
0.0
 47
0.0
 47
0.0208333333333333
 47
0.0
 47
0.0
 47
0.0
 47
0.0
 47
1.0
 47
0.0
 47
0.0
 47
0.0
 47
0.0
 47
1.0
171
     0
172
     2
 49
0.0208333333333333
 49
0.0
 49
0.0
 49
0.0
 49
0.0
 49
0.0208333333333333
 49
0.0
 49
0.0
 49
0.0
 49
0.0
 49
1.0
 49
0.0
 49
0.0
 49
0.0
 49
0.0
 49
1.0
175
     0
176
     2
142
0.0208333333333333
142
0.0
142
0.0
142
0.0
142
0.0
142
0.0208333333333333
142
0.0
142
0.0
142
0.0
142
0.0
142
1.0
142
0.0
142
0.0
142
0.0
142
0.0
142
1.0
179
     0
270
     2
144
0.0208333333333333
144
0.0
144
0.0
144
0.0
144
0.0
144
0.0208333333333333
144
0.0
144
0.0
144
0.0
144
0.0
144
1.0
144
0.0
144
0.0
144
0.0
144
0.0
144
1.0
274
     2
147
0.0208333333333333
147
0.0
147
0.0
147
0.0
147
0.0
147
0.0208333333333333
147
0.0
147
0.0
147
0.0
147
0.0
147
1.0
147
0.0
147
0.0
147
0.0
147
0.0
147
1.0
 94
      127
  0
MATERIAL
  5
136
102
{ACAD_REACTORS
330
6B
102
}
330
6B
100
AcDbMaterial
  1
ByLayer
 72
     0
 73
     2
 43
0.0208333333333333
 43
0.0
 43
0.0
 43
0.0
 43
0.0
 43
0.0208333333333333
 43
0.0
 43
0.0
 43
0.0
 43
0.0
 43
1.0
 43
0.0
 43
0.0
 43
0.0
 43
0.0
 43
1.0
 77
     0
 78
     2
 47
0.0208333333333333
 47
0.0
 47
0.0
 47
0.0
 47
0.0
 47
0.0208333333333333
 47
0.0
 47
0.0
 47
0.0
 47
0.0
 47
1.0
 47
0.0
 47
0.0
 47
0.0
 47
0.0
 47
1.0
171
     0
172
     2
 49
0.0208333333333333
 49
0.0
 49
0.0
 49
0.0
 49
0.0
 49
0.0208333333333333
 49
0.0
 49
0.0
 49
0.0
 49
0.0
 49
1.0
 49
0.0
 49
0.0
 49
0.0
 49
0.0
 49
1.0
175
     0
176
     2
142
0.0208333333333333
142
0.0
142
0.0
142
0.0
142
0.0
142
0.0208333333333333
142
0.0
142
0.0
142
0.0
142
0.0
142
1.0
142
0.0
142
0.0
142
0.0
142
0.0
142
1.0
179
     0
270
     2
144
0.0208333333333333
144
0.0
144
0.0
144
0.0
144
0.0
144
0.0208333333333333
144
0.0
144
0.0
144
0.0
144
0.0
144
1.0
144
0.0
144
0.0
144
0.0
144
0.0
144
1.0
274
     2
147
0.0208333333333333
147
0.0
147
0.0
147
0.0
147
0.0
147
0.0208333333333333
147
0.0
147
0.0
147
0.0
147
0.0
147
1.0
147
0.0
147
0.0
147
0.0
147
0.0
147
1.0
 94
      127
  0
MATERIAL
  5
146
102
{ACAD_REACTORS
330
6B
102
}
330
6B
100
AcDbMaterial
  1
Global
 72
     0
 73
     2
 43
0.0208333333333333
 43
0.0
 43
0.0
 43
0.0
 43
0.0
 43
0.0208333333333333
 43
0.0
 43
0.0
 43
0.0
 43
0.0
 43
1.0
 43
0.0
 43
0.0
 43
0.0
 43
0.0
 43
1.0
 77
     0
 78
     2
 47
0.0208333333333333
 47
0.0
 47
0.0
 47
0.0
 47
0.0
 47
0.0208333333333333
 47
0.0
 47
0.0
 47
0.0
 47
0.0
 47
1.0
 47
0.0
 47
0.0
 47
0.0
 47
0.0
 47
1.0
171
     0
172
     2
 49
0.0208333333333333
 49
0.0
 49
0.0
 49
0.0
 49
0.0
 49
0.0208333333333333
 49
0.0
 49
0.0
 49
0.0
 49
0.0
 49
1.0
 49
0.0
 49
0.0
 49
0.0
 49
0.0
 49
1.0
175
     0
176
     2
142
0.0208333333333333
142
0.0
142
0.0
142
0.0
142
0.0
142
0.0208333333333333
142
0.0
142
0.0
142
0.0
142
0.0
142
1.0
142
0.0
142
0.0
142
0.0
142
0.0
142
1.0
179
     0
270
     2
144
0.0208333333333333
144
0.0
144
0.0
144
0.0
144
0.0
144
0.0208333333333333
144
0.0
144
0.0
144
0.0
144
0.0
144
1.0
144
0.0
144
0.0
144
0.0
144
0.0
144
1.0
274
     2
147
0.0208333333333333
147
0.0
147
0.0
147
0.0
147
0.0
147
0.0208333333333333
147
0.0
147
0.0
147
0.0
147
0.0
147
1.0
147
0.0
147
0.0
147
0.0
147
0.0
147
1.0
 94
      127
  0
MLEADERSTYLE
  5
226
102
{ACAD_REACTORS
330
CC
102
}
330
CC
100
AcDbMLeaderStyle
179
     2
170
     2
171
     1
172
     0
 90
        2
 40
0.0
 41
0.0
173
     1
 91
-1056964608
340
14
 92
       -2
290
     1
 42
0.09
291
     1
 43
0.36
  3
Standard
 44
0.18
300

342
11
174
     1
178
     1
175
     1
176
     0
 93
-1056964608
 45
0.18
292
     0
297
     0
 46
0.18
 94
-1056964608
 47
1.0
 49
1.0
140
1.0
293
     1
141
0.0
294
     1
177
     0
142
1.0
295
     0
296
     1
143
0.125
271
     0
272
     9
273
     9
298
     0
  0
MLEADERSTYLE
  5
CF
102
{ACAD_REACTORS
330
CC
102
}
330
CC
100
AcDbMLeaderStyle
179
     2
170
     2
171
     1
172
     0
 90
        2
 40
0.0
 41
0.0
173
     1
 91
-1056964608
340
14
 92
       -2
290
     1
 42
0.09
291
     1
 43
0.36
  3
Standard
 44
0.18
300

342
11
174
     1
178
     1
175
     1
176
     0
 93
-1056964608
 45
0.18
292
     0
297
     0
 46
0.18
 94
-1056964608
 47
1.0
 49
1.0
140
1.0
293
     1
141
0.0
294
     1
177
     0
142
1.0
295
     0
296
     0
143
0.125
271
     0
272
     9
273
     9
298
     0
  0
MLINESTYLE
  5
18
102
{ACAD_REACTORS
330
17
102
}
330
17
100
AcDbMlineStyle
  2
STANDARD
 70
     0
  3

 62
   256
 51
90.0
 52
90.0
 71
     2
 49
0.5
 62
   256
  6
BYLAYER
 49
-0.5
 62
   256
  6
BYLAYER
  0
ACDBPLACEHOLDER
  5
F
102
{ACAD_REACTORS
330
E
102
}
330
E
  0
SCALE
  5
A7
102
{ACAD_REACTORS
330
A6
102
}
330
A6
100
AcDbScale
 70
     0
300
1:1
140
1.0
141
1.0
290
     1
  0
SCALE
  5
A8
102
{ACAD_REACTORS
330
A6
102
}
330
A6
100
AcDbScale
 70
     0
300
1:2
140
1.0
141
2.0
290
     0
  0
SCALE
  5
A9
102
{ACAD_REACTORS
330
A6
102
}
330
A6
100
AcDbScale
 70
     0
300
1:4
140
1.0
141
4.0
290
     0
  0
SCALE
  5
AA
102
{ACAD_REACTORS
330
A6
102
}
330
A6
100
AcDbScale
 70
     0
300
1:5
140
1.0
141
5.0
290
     0
  0
SCALE
  5
AB
102
{ACAD_REACTORS
330
A6
102
}
330
A6
100
AcDbScale
 70
     0
300
1:8
140
1.0
141
8.0
290
     0
  0
SCALE
  5
AC
102
{ACAD_REACTORS
330
A6
102
}
330
A6
100
AcDbScale
 70
     0
300
1:10
140
1.0
141
10.0
290
     0
  0
SCALE
  5
AD
102
{ACAD_REACTORS
330
A6
102
}
330
A6
100
AcDbScale
 70
     0
300
1:16
140
1.0
141
16.0
290
     0
  0
SCALE
  5
AE
102
{ACAD_REACTORS
330
A6
102
}
330
A6
100
AcDbScale
 70
     0
300
1:20
140
1.0
141
20.0
290
     0
  0
SCALE
  5
AF
102
{ACAD_REACTORS
330
A6
102
}
330
A6
100
AcDbScale
 70
     0
300
1:30
140
1.0
141
30.0
290
     0
  0
SCALE
  5
B0
102
{ACAD_REACTORS
330
A6
102
}
330
A6
100
AcDbScale
 70
     0
300
1:40
140
1.0
141
40.0
290
     0
  0
SCALE
  5
B1
102
{ACAD_REACTORS
330
A6
102
}
330
A6
100
AcDbScale
 70
     0
300
1:50
140
1.0
141
50.0
290
     0
  0
SCALE
  5
B2
102
{ACAD_REACTORS
330
A6
102
}
330
A6
100
AcDbScale
 70
     0
300
1:100
140
1.0
141
100.0
290
     0
  0
SCALE
  5
B3
102
{ACAD_REACTORS
330
A6
102
}
330
A6
100
AcDbScale
 70
     0
300
2:1
140
2.0
141
1.0
290
     0
  0
SCALE
  5
B4
102
{ACAD_REACTORS
330
A6
102
}
330
A6
100
AcDbScale
 70
     0
300
4:1
140
4.0
141
1.0
290
     0
  0
SCALE
  5
B5
102
{ACAD_REACTORS
330
A6
102
}
330
A6
100
AcDbScale
 70
     0
300
8:1
140
8.0
141
1.0
290
     0
  0
SCALE
  5
B6
102
{ACAD_REACTORS
330
A6
102
}
330
A6
100
AcDbScale
 70
     0
300
10:1
140
10.0
141
1.0
290
     0
  0
SCALE
  5
B7
102
{ACAD_REACTORS
330
A6
102
}
330
A6
100
AcDbScale
 70
     0
300
100:1
140
100.0
141
1.0
290
     0
  0
SCALE
  5
B8
102
{ACAD_REACTORS
330
A6
102
}
330
A6
100
AcDbScale
 70
     0
300
1/128" = 1'-0"
140
0.0078125
141
12.0
290
     0
  0
SCALE
  5
B9
102
{ACAD_REACTORS
330
A6
102
}
330
A6
100
AcDbScale
 70
     0
300
1/64" = 1'-0"
140
0.015625
141
12.0
290
     0
  0
SCALE
  5
BA
102
{ACAD_REACTORS
330
A6
102
}
330
A6
100
AcDbScale
 70
     0
300
1/32" = 1'-0"
140
0.03125
141
12.0
290
     0
  0
SCALE
  5
BB
102
{ACAD_REACTORS
330
A6
102
}
330
A6
100
AcDbScale
 70
     0
300
1/16" = 1'-0"
140
0.0625
141
12.0
290
     0
  0
SCALE
  5
BC
102
{ACAD_REACTORS
330
A6
102
}
330
A6
100
AcDbScale
 70
     0
300
3/32" = 1'-0"
140
0.09375
141
12.0
290
     0
  0
SCALE
  5
BD
102
{ACAD_REACTORS
330
A6
102
}
330
A6
100
AcDbScale
 70
     0
300
1/8" = 1'-0"
140
0.125
141
12.0
290
     0
  0
SCALE
  5
BE
102
{ACAD_REACTORS
330
A6
102
}
330
A6
100
AcDbScale
 70
     0
300
3/16" = 1'-0"
140
0.1875
141
12.0
290
     0
  0
SCALE
  5
BF
102
{ACAD_REACTORS
330
A6
102
}
330
A6
100
AcDbScale
 70
     0
300
1/4" = 1'-0"
140
0.25
141
12.0
290
     0
  0
SCALE
  5
C0
102
{ACAD_REACTORS
330
A6
102
}
330
A6
100
AcDbScale
 70
     0
300
3/8" = 1'-0"
140
0.375
141
12.0
290
     0
  0
SCALE
  5
C1
102
{ACAD_REACTORS
330
A6
102
}
330
A6
100
AcDbScale
 70
     0
300
1/2" = 1'-0"
140
0.5
141
12.0
290
     0
  0
SCALE
  5
C2
102
{ACAD_REACTORS
330
A6
102
}
330
A6
100
AcDbScale
 70
     0
300
3/4" = 1'-0"
140
0.75
141
12.0
290
     0
  0
SCALE
  5
C3
102
{ACAD_REACTORS
330
A6
102
}
330
A6
100
AcDbScale
 70
     0
300
1" = 1'-0"
140
1.0
141
12.0
290
     0
  0
SCALE
  5
C4
102
{ACAD_REACTORS
330
A6
102
}
330
A6
100
AcDbScale
 70
     0
300
1-1/2" = 1'-0"
140
1.5
141
12.0
290
     0
  0
SCALE
  5
C5
102
{ACAD_REACTORS
330
A6
102
}
330
A6
100
AcDbScale
 70
     0
300
3" = 1'-0"
140
3.0
141
12.0
290
     0
  0
SCALE
  5
C6
102
{ACAD_REACTORS
330
A6
102
}
330
A6
100
AcDbScale
 70
     0
300
6" = 1'-0"
140
6.0
141
12.0
290
     0
  0
SCALE
  5
C7
102
{ACAD_REACTORS
330
A6
102
}
330
A6
100
AcDbScale
 70
     0
300
1'-0" = 1'-0"
140
12.0
141
12.0
290
     0
  0
ACDBSECTIONVIEWSTYLE
  5
1D8
102
{ACAD_REACTORS
330
1D6
102
}
330
1D6
100
AcDbModelDocViewStyle
 70
     0
  3
Imperial24
290
     1
300
Metric50
 90
        0
100
AcDbSectionViewStyle
 70
     0
 71
     0
 90
       78
 71
     1
340
11
 62
   256
 40
0.24
340
0
340
0
 62
   256
 40
0.24
300
I, O, Q, S, X, Z
 40
0.48
 90
        3
 40
0.18
 90
        1
 71
     2
340
1D7
 90
       25
 62
   256
340
16
 90
       50
 62
   256
 40
0.24
 40
0.0
 40
0.24
 71
     3
340
11
 62
   256
 40
0.24
 90
        1
 40
0.75
 90
        1
300
%<\AcVar ViewType \f "%tc1">% %<\AcVar ViewSectionStartId>%-%<\AcVar ViewSectionEndId>%\PSCALE %<\AcVar ViewScale \f "%sn">%
 71
     4
 62
   256
 62
   257
300
ANSI31
 40
1.0
 90
        0
290
     0
290
     0
 90
        6
 40
0.0
 40
1.570796326794896
 40
0.2617993877991494
 40
1.308996938995747
 40
-0.2617993877991494
 40
1.832595714594046
  0
TABLESTYLE
  5
93
102
{ACAD_REACTORS
330
92
102
}
330
92
100
AcDbTableStyle
  3
Standard
 70
     0
 71
     0
 40
0.06
 41
0.06
280
     0
281
     0
  7
Standard
140
0.18
170
     2
 62
     0
 63
   257
283
     0
 90
      512
 91
        0
  1

274
    -2
284
     1
 64
     0
275
    -2
285
     1
 65
     0
276
    -2
286
     1
 66
     0
277
    -2
287
     1
 67
     0
278
    -2
288
     1
 68
     0
279
    -2
289
     1
 69
     0
  7
Standard
140
0.25
170
     5
 62
     0
 63
   257
283
     0
 90
      512
 91
        0
  1

274
    -2
284
     1
 64
     0
275
    -2
285
     1
 65
     0
276
    -2
286
     1
 66
     0
277
    -2
287
     1
 67
     0
278
    -2
288
     1
 68
     0
279
    -2
289
     1
 69
     0
  7
Standard
140
0.18
170
     5
 62
     0
 63
   257
283
     0
 90
      512
 91
        0
  1

274
    -2
284
     1
 64
     0
275
    -2
285
     1
 65
     0
276
    -2
286
     1
 66
     0
277
    -2
287
     1
 67
     0
278
    -2
288
     1
 68
     0
279
    -2
289
     1
 69
     0
  0
VISUALSTYLE
  5
154
102
{ACAD_REACTORS
330
14E
102
}
330
14E
100
AcDbVisualStyle
  2
2dWireframe
 70
     4
177
     3
291
     0
 70
    58
 90
        0
176
     1
 90
        2
176
     1
 90
        0
176
     1
 90
        0
176
     1
 40
0.6
176
     1
 40
30.0
176
     1
 62
     7
420
 16777215
176
     1
 90
        1
176
     1
 90
        4
176
     1
 62
     7
176
     1
 62
   257
176
     1
 90
        1
176
     1
 90
        1
176
     1
 40
1.0
176
     1
 90
        0
176
     1
 62
   257
176
     1
 40
1.0
176
     1
 90
        1
176
     1
 90
        6
176
     1
 90
        2
176
     1
 62
     7
176
     1
 90
        5
176
     1
 90
        0
176
     1
 90
        0
176
     1
290
     0
176
     1
 90
        1
176
     1
 40
0.0
176
     1
 90
        0
176
     1
290
     1
176
     1
290
     1
176
     1
290
     0
176
     1
290
     0
176
     1
290
     0
176
     1
290
     0
176
     1
290
     0
176
     1
290
     0
176
     1
290
     0
176
     1
 90
       50
176
     1
 40
0.0
176
     1
 40
1.0
176
     1
 90
        0
176
     1
 62
    18
420
        0
176
     1
 90
       50
176
     1
 90
        3
176
     1
 62
     5
420
      255
176
     1
290
     0
176
     1
 90
       50
176
     1
 90
       50
176
     1
 90
       50
176
     1
290
     0
176
     1
 90
       50
176
     1
 62
   256
176
     0
 40
1.0
176
     0
 90
        0
176
     1
  1
strokes_ogs.tif
176
     1
290
     0
176
     1
 40
1.0
176
     1
 40
1.0
176
     1
  0
VISUALSTYLE
  5
156
102
{ACAD_REACTORS
330
14E
102
}
330
14E
100
AcDbVisualStyle
  2
3D Hidden
 70
     6
177
     3
291
     0
 70
    58
 90
        1
176
     1
 90
        2
176
     1
 90
        2
176
     1
 90
        0
176
     1
 40
0.6
176
     1
 40
30.0
176
     1
 62
     7
420
 16777215
176
     1
 90
        2
176
     1
 90
        2
176
     1
 62
     7
176
     1
 62
   257
176
     1
 90
        2
176
     1
 90
        1
176
     1
 40
179.0
176
     1
 90
        0
176
     1
 62
   257
176
     1
 40
1.0
176
     1
 90
        1
176
     1
 90
        6
176
     1
 90
        2
176
     1
 62
     7
176
     1
 90
        3
176
     1
 90
        0
176
     1
 90
        0
176
     1
290
     0
176
     1
 90
        1
176
     1
 40
0.0
176
     1
 90
        0
176
     1
290
     0
176
     1
290
     1
176
     1
290
     1
176
     1
290
     0
176
     1
290
     0
176
     1
290
     0
176
     1
290
     0
176
     1
290
     0
176
     1
290
     0
176
     1
 90
       50
176
     1
 40
0.0
176
     1
 40
1.0
176
     1
 90
        0
176
     1
 62
    18
420
        0
176
     1
 90
       50
176
     1
 90
        3
176
     1
 62
     5
420
      255
176
     1
290
     0
176
     1
 90
       50
176
     1
 90
       50
176
     1
 90
       50
176
     1
290
     0
176
     1
 90
       50
176
     1
 62
   256
176
     0
 40
1.0
176
     0
 90
        0
176
     1
  1
strokes_ogs.tif
176
     1
290
     0
176
     1
 40
1.0
176
     1
 40
1.0
176
     1
  0
VISUALSTYLE
  5
155
102
{ACAD_REACTORS
330
14E
102
}
330
14E
100
AcDbVisualStyle
  2
3dWireframe
 70
     5
177
     3
291
     0
 70
    58
 90
        0
176
     1
 90
        2
176
     1
 90
        0
176
     1
 90
        0
176
     1
 40
0.6
176
     1
 40
30.0
176
     1
 62
     7
420
 16777215
176
     1
 90
        1
176
     1
 90
        4
176
     1
 62
     7
176
     1
 62
   257
176
     1
 90
        1
176
     1
 90
        1
176
     1
 40
1.0
176
     1
 90
        0
176
     1
 62
   257
176
     1
 40
1.0
176
     1
 90
        1
176
     1
 90
        6
176
     1
 90
        2
176
     1
 62
     7
176
     1
 90
        5
176
     1
 90
        0
176
     1
 90
        0
176
     1
290
     0
176
     1
 90
        1
176
     1
 40
0.0
176
     1
 90
        0
176
     1
290
     0
176
     1
290
     1
176
     1
290
     1
176
     1
290
     0
176
     1
290
     0
176
     1
290
     0
176
     1
290
     0
176
     1
290
     0
176
     1
290
     0
176
     1
 90
       50
176
     1
 40
0.0
176
     1
 40
1.0
176
     1
 90
        0
176
     1
 62
    18
420
        0
176
     1
 90
       50
176
     1
 90
        3
176
     1
 62
     5
420
      255
176
     1
290
     0
176
     1
 90
       50
176
     1
 90
       50
176
     1
 90
       50
176
     1
290
     0
176
     1
 90
       50
176
     1
 62
   256
176
     0
 40
1.0
176
     0
 90
        0
176
     1
  1
strokes_ogs.tif
176
     1
290
     0
176
     1
 40
1.0
176
     1
 40
1.0
176
     1
  0
VISUALSTYLE
  5
153
102
{ACAD_REACTORS
330
14E
102
}
330
14E
100
AcDbVisualStyle
  2
Basic
 70
     7
177
     3
291
     1
 70
    58
 90
        1
176
     1
 90
        0
176
     1
 90
        1
176
     1
 90
        0
176
     1
 40
0.6
176
     1
 40
30.0
176
     1
 62
     7
420
 16777215
176
     1
 90
        0
176
     1
 90
        4
176
     1
 62
     7
176
     1
 62
   257
176
     1
 90
        1
176
     1
 90
        1
176
     1
 40
1.0
176
     1
 90
        8
176
     1
 62
     7
176
     1
 40
1.0
176
     1
 90
        1
176
     1
 90
        6
176
     1
 90
        2
176
     1
 62
     7
176
     1
 90
        5
176
     1
 90
        0
176
     1
 90
        0
176
     1
290
     0
176
     1
 90
        1
176
     1
 40
0.0
176
     1
 90
        0
176
     1
290
     0
176
     1
290
     1
176
     1
290
     1
176
     1
290
     0
176
     1
290
     0
176
     1
290
     0
176
     1
290
     0
176
     1
290
     0
176
     1
290
     0
176
     1
 90
       50
176
     1
 40
0.0
176
     1
 40
1.0
176
     1
 90
        0
176
     1
 62
    18
420
        0
176
     1
 90
       50
176
     1
 90
        3
176
     1
 62
     5
420
      255
176
     1
290
     0
176
     1
 90
       50
176
     1
 90
       50
176
     1
 90
       50
176
     1
290
     0
176
     1
 90
       50
176
     1
 62
   256
176
     0
 40
1.0
176
     0
 90
        0
176
     1
  1
strokes_ogs.tif
176
     1
290
     0
176
     1
 40
1.0
176
     1
 40
1.0
176
     1
  0
VISUALSTYLE
  5
15A
102
{ACAD_REACTORS
330
14E
102
}
330
14E
100
AcDbVisualStyle
  2
Brighten
 70
    12
177
     3
291
     1
 70
    58
 90
        2
176
     1
 90
        2
176
     1
 90
        0
176
     1
 90
        0
176
     1
 40
0.6
176
     1
 40
30.0
176
     1
 62
     7
420
 16777215
176
     1
 90
        1
176
     1
 90
        4
176
     1
 62
     7
176
     1
 62
   257
176
     1
 90
        1
176
     1
 90
        1
176
     1
 40
1.0
176
     1
 90
        8
176
     1
 62
     7
176
     1
 40
1.0
176
     1
 90
        1
176
     1
 90
        6
176
     1
 90
        2
176
     1
 62
     7
176
     1
 90
        5
176
     1
 90
        0
176
     1
 90
        0
176
     1
290
     0
176
     1
 90
        1
176
     1
 40
50.0
176
     1
 90
        0
176
     1
290
     0
176
     1
290
     1
176
     1
290
     1
176
     1
290
     0
176
     1
290
     0
176
     1
290
     0
176
     1
290
     0
176
     1
290
     0
176
     1
290
     0
176
     1
 90
       50
176
     1
 40
0.0
176
     1
 40
1.0
176
     1
 90
        0
176
     1
 62
    18
420
        0
176
     1
 90
       50
176
     1
 90
        3
176
     1
 62
     5
420
      255
176
     1
290
     0
176
     1
 90
       50
176
     1
 90
       50
176
     1
 90
       50
176
     1
290
     0
176
     1
 90
       50
176
     1
 62
   256
176
     0
 40
1.0
176
     0
 90
        0
176
     1
  1
strokes_ogs.tif
176
     1
290
     0
176
     1
 40
1.0
176
     1
 40
1.0
176
     1
  0
VISUALSTYLE
  5
15E
102
{ACAD_REACTORS
330
14E
102
}
330
14E
100
AcDbVisualStyle
  2
ColorChange
 70
    16
177
     3
291
     1
 70
    58
 90
        2
176
     1
 90
        2
176
     1
 90
        3
176
     1
 90
        0
176
     1
 40
0.6
176
     1
 40
30.0
176
     1
 62
     8
420
  8421504
176
     1
 90
        1
176
     1
 90
        4
176
     1
 62
     7
176
     1
 62
   257
176
     1
 90
        1
176
     1
 90
        1
176
     1
 40
1.0
176
     1
 90
        8
176
     1
 62
     8
420
  8421504
176
     1
 40
1.0
176
     1
 90
        1
176
     1
 90
        6
176
     1
 90
        2
176
     1
 62
     7
176
     1
 90
        5
176
     1
 90
        0
176
     1
 90
        0
176
     1
290
     0
176
     1
 90
        1
176
     1
 40
0.0
176
     1
 90
        0
176
     1
290
     0
176
     1
290
     1
176
     1
290
     1
176
     1
290
     0
176
     1
290
     0
176
     1
290
     0
176
     1
290
     0
176
     1
290
     0
176
     1
290
     0
176
     1
 90
       50
176
     1
 40
0.0
176
     1
 40
1.0
176
     1
 90
        0
176
     1
 62
    18
420
        0
176
     1
 90
       50
176
     1
 90
        3
176
     1
 62
     5
420
      255
176
     1
290
     0
176
     1
 90
       50
176
     1
 90
       50
176
     1
 90
       50
176
     1
290
     0
176
     1
 90
       50
176
     1
 62
   256
176
     0
 40
1.0
176
     0
 90
        0
176
     1
  1
strokes_ogs.tif
176
     1
290
     0
176
     1
 40
1.0
176
     1
 40
1.0
176
     1
  0
VISUALSTYLE
  5
157
102
{ACAD_REACTORS
330
14E
102
}
330
14E
100
AcDbVisualStyle
  2
Conceptual
 70
     9
177
     3
291
     0
 70
    58
 90
        3
176
     1
 90
        2
176
     1
 90
        0
176
     1
 90
        0
176
     1
 40
0.6
176
     1
 40
30.0
176
     1
 62
     7
420
 16777215
176
     1
 90
        2
176
     1
 90
        2
176
     1
 62
     7
176
     1
 62
   257
176
     1
 90
        1
176
     1
 90
        1
176
     1
 40
179.0
176
     1
 90
        8
176
     1
 62
     7
176
     1
 40
1.0
176
     1
 90
        1
176
     1
 90
        6
176
     1
 90
        2
176
     1
 62
     7
176
     1
 90
        3
176
     1
 90
        0
176
     1
 90
        0
176
     1
290
     0
176
     1
 90
        1
176
     1
 40
0.0
176
     1
 90
        0
176
     1
290
     0
176
     1
290
     1
176
     1
290
     1
176
     1
290
     0
176
     1
290
     0
176
     1
290
     0
176
     1
290
     0
176
     1
290
     0
176
     1
290
     0
176
     1
 90
       50
176
     1
 40
0.0
176
     1
 40
1.0
176
     1
 90
        0
176
     1
 62
    18
420
        0
176
     1
 90
       50
176
     1
 90
        3
176
     1
 62
     5
420
      255
176
     1
290
     0
176
     1
 90
       50
176
     1
 90
       50
176
     1
 90
       50
176
     1
290
     0
176
     1
 90
       50
176
     1
 62
   256
176
     0
 40
1.0
176
     0
 90
        0
176
     1
  1
strokes_ogs.tif
176
     1
290
     0
176
     1
 40
1.0
176
     1
 40
1.0
176
     1
  0
VISUALSTYLE
  5
159
102
{ACAD_REACTORS
330
14E
102
}
330
14E
100
AcDbVisualStyle
  2
Dim
 70
    11
177
     3
291
     1
 70
    58
 90
        2
176
     1
 90
        2
176
     1
 90
        0
176
     1
 90
        0
176
     1
 40
0.6
176
     1
 40
30.0
176
     1
 62
     7
420
 16777215
176
     1
 90
        1
176
     1
 90
        4
176
     1
 62
     7
176
     1
 62
   257
176
     1
 90
        1
176
     1
 90
        1
176
     1
 40
1.0
176
     1
 90
        8
176
     1
 62
     7
176
     1
 40
1.0
176
     1
 90
        1
176
     1
 90
        6
176
     1
 90
        2
176
     1
 62
     7
176
     1
 90
        5
176
     1
 90
        0
176
     1
 90
        0
176
     1
290
     0
176
     1
 90
        1
176
     1
 40
-50.0
176
     1
 90
        0
176
     1
290
     0
176
     1
290
     1
176
     1
290
     1
176
     1
290
     0
176
     1
290
     0
176
     1
290
     0
176
     1
290
     0
176
     1
290
     0
176
     1
290
     0
176
     1
 90
       50
176
     1
 40
0.0
176
     1
 40
1.0
176
     1
 90
        0
176
     1
 62
    18
420
        0
176
     1
 90
       50
176
     1
 90
        3
176
     1
 62
     5
420
      255
176
     1
290
     0
176
     1
 90
       50
176
     1
 90
       50
176
     1
 90
       50
176
     1
290
     0
176
     1
 90
       50
176
     1
 62
   256
176
     0
 40
1.0
176
     0
 90
        0
176
     1
  1
strokes_ogs.tif
176
     1
290
     0
176
     1
 40
1.0
176
     1
 40
1.0
176
     1
  0
VISUALSTYLE
  5
161
102
{ACAD_REACTORS
330
14E
102
}
330
14E
100
AcDbVisualStyle
  2
EdgeColorOff
 70
    22
177
     3
291
     1
 70
    58
 90
        2
176
     0
 90
        2
176
     0
 90
        0
176
     0
 90
        0
176
     0
 40
0.6
176
     0
 40
30.0
176
     0
 62
     7
420
 16777215
176
     0
 90
        1
176
     0
 90
        4
176
     0
 62
     7
176
     0
 62
   257
176
     0
 90
        1
176
     0
 90
        1
176
     0
 40
1.0
176
     0
 90
        8
176
     2
 62
     7
176
     0
 40
1.0
176
     0
 90
        1
176
     0
 90
        6
176
     0
 90
        2
176
     0
 62
     7
176
     0
 90
        5
176
     0
 90
        0
176
     0
 90
        0
176
     0
290
     0
176
     0
 90
        1
176
     0
 40
0.0
176
     0
 90
        0
176
     0
290
     0
176
     1
290
     1
176
     1
290
     1
176
     1
290
     0
176
     1
290
     0
176
     1
290
     0
176
     1
290
     0
176
     1
290
     0
176
     1
290
     0
176
     1
 90
       50
176
     1
 40
0.0
176
     1
 40
1.0
176
     1
 90
        0
176
     1
 62
    18
420
        0
176
     1
 90
       50
176
     1
 90
        3
176
     1
 62
     5
420
      255
176
     1
290
     0
176
     1
 90
       50
176
     1
 90
       50
176
     1
 90
       50
176
     1
290
     0
176
     1
 90
       50
176
     1
 62
   256
176
     0
 40
1.0
176
     0
 90
        0
176
     1
  1
strokes_ogs.tif
176
     1
290
     0
176
     1
 40
1.0
176
     1
 40
1.0
176
     1
  0
VISUALSTYLE
  5
15D
102
{ACAD_REACTORS
330
14E
102
}
330
14E
100
AcDbVisualStyle
  2
Facepattern
 70
    15
177
     3
291
     1
 70
    58
 90
        2
176
     1
 90
        2
176
     1
 90
        0
176
     1
 90
        0
176
     1
 40
0.6
176
     1
 40
30.0
176
     1
 62
     7
420
 16777215
176
     1
 90
        1
176
     1
 90
        4
176
     1
 62
     7
176
     1
 62
   257
176
     1
 90
        1
176
     1
 90
        1
176
     1
 40
1.0
176
     1
 90
        8
176
     1
 62
     7
176
     1
 40
1.0
176
     1
 90
        1
176
     1
 90
        6
176
     1
 90
        2
176
     1
 62
     7
176
     1
 90
        5
176
     1
 90
        0
176
     1
 90
        0
176
     1
290
     0
176
     1
 90
        1
176
     1
 40
0.0
176
     1
 90
        0
176
     1
290
     0
176
     1
290
     1
176
     1
290
     1
176
     1
290
     0
176
     1
290
     0
176
     1
290
     0
176
     1
290
     0
176
     1
290
     0
176
     1
290
     0
176
     1
 90
       50
176
     1
 40
0.0
176
     1
 40
1.0
176
     1
 90
        0
176
     1
 62
    18
420
        0
176
     1
 90
       50
176
     1
 90
        3
176
     1
 62
     5
420
      255
176
     1
290
     0
176
     1
 90
       50
176
     1
 90
       50
176
     1
 90
       50
176
     1
290
     0
176
     1
 90
       50
176
     1
 62
   256
176
     0
 40
1.0
176
     0
 90
        0
176
     1
  1
strokes_ogs.tif
176
     1
290
     0
176
     1
 40
1.0
176
     1
 40
1.0
176
     1
  0
VISUALSTYLE
  5
14F
102
{ACAD_REACTORS
330
14E
102
}
330
14E
100
AcDbVisualStyle
  2
Flat
 70
     0
177
     3
291
     1
 70
    58
 90
        2
176
     1
 90
        1
176
     1
 90
        1
176
     1
 90
        2
176
     1
 40
0.6
176
     1
 40
30.0
176
     1
 62
     7
420
 16777215
176
     1
 90
        0
176
     1
 90
        4
176
     1
 62
     7
176
     1
 62
   257
176
     1
 90
        1
176
     1
 90
        1
176
     1
 40
1.0
176
     1
 90
        8
176
     1
 62
     7
176
     1
 40
1.0
176
     1
 90
        1
176
     1
 90
        6
176
     1
 90
        2
176
     1
 62
     7
176
     1
 90
        5
176
     1
 90
        0
176
     1
 90
        0
176
     1
290
     0
176
     1
 90
       13
176
     1
 40
0.0
176
     1
 90
        0
176
     1
290
     0
176
     1
290
     1
176
     1
290
     1
176
     1
290
     0
176
     1
290
     0
176
     1
290
     0
176
     1
290
     0
176
     1
290
     0
176
     1
290
     0
176
     1
 90
       50
176
     1
 40
0.0
176
     1
 40
1.0
176
     1
 90
        0
176
     1
 62
    18
420
        0
176
     1
 90
       50
176
     1
 90
        3
176
     1
 62
     5
420
      255
176
     1
290
     0
176
     1
 90
       50
176
     1
 90
       50
176
     1
 90
       50
176
     1
290
     0
176
     1
 90
       50
176
     1
 62
   256
176
     0
 40
1.0
176
     0
 90
        2
176
     1
  1
strokes_ogs.tif
176
     1
290
     0
176
     1
 40
1.0
176
     1
 40
1.0
176
     1
  0
VISUALSTYLE
  5
150
102
{ACAD_REACTORS
330
14E
102
}
330
14E
100
AcDbVisualStyle
  2
FlatWithEdges
 70
     1
177
     3
291
     1
 70
    58
 90
        2
176
     1
 90
        1
176
     1
 90
        1
176
     1
 90
        2
176
     1
 40
0.6
176
     1
 40
30.0
176
     1
 62
     7
420
 16777215
176
     1
 90
        1
176
     1
 90
        4
176
     1
 62
     7
176
     1
 62
   257
176
     1
 90
        1
176
     1
 90
        1
176
     1
 40
1.0
176
     1
 90
        0
176
     1
 62
   257
176
     1
 40
1.0
176
     1
 90
        1
176
     1
 90
        6
176
     1
 90
        2
176
     1
 62
     7
176
     1
 90
        5
176
     1
 90
        0
176
     1
 90
        0
176
     1
290
     0
176
     1
 90
       13
176
     1
 40
0.0
176
     1
 90
        0
176
     1
290
     0
176
     1
290
     1
176
     1
290
     1
176
     1
290
     0
176
     1
290
     0
176
     1
290
     0
176
     1
290
     0
176
     1
290
     0
176
     1
290
     0
176
     1
 90
       50
176
     1
 40
0.0
176
     1
 40
1.0
176
     1
 90
        0
176
     1
 62
    18
420
        0
176
     1
 90
       50
176
     1
 90
        3
176
     1
 62
     5
420
      255
176
     1
290
     0
176
     1
 90
       50
176
     1
 90
       50
176
     1
 90
       50
176
     1
290
     0
176
     1
 90
       50
176
     1
 62
   256
176
     0
 40
1.0
176
     0
 90
        2
176
     1
  1
strokes_ogs.tif
176
     1
290
     0
176
     1
 40
1.0
176
     1
 40
1.0
176
     1
  0
VISUALSTYLE
  5
151
102
{ACAD_REACTORS
330
14E
102
}
330
14E
100
AcDbVisualStyle
  2
Gouraud
 70
     2
177
     3
291
     1
 70
    58
 90
        2
176
     1
 90
        2
176
     1
 90
        1
176
     1
 90
        2
176
     1
 40
0.6
176
     1
 40
30.0
176
     1
 62
     7
420
 16777215
176
     1
 90
        0
176
     1
 90
        4
176
     1
 62
     7
176
     1
 62
   257
176
     1
 90
        1
176
     1
 90
        1
176
     1
 40
1.0
176
     1
 90
        0
176
     1
 62
     7
176
     1
 40
1.0
176
     1
 90
        1
176
     1
 90
        6
176
     1
 90
        2
176
     1
 62
     7
176
     1
 90
        5
176
     1
 90
        0
176
     1
 90
        0
176
     1
290
     0
176
     1
 90
       13
176
     1
 40
0.0
176
     1
 90
        0
176
     1
290
     0
176
     1
290
     1
176
     1
290
     1
176
     1
290
     0
176
     1
290
     0
176
     1
290
     0
176
     1
290
     0
176
     1
290
     0
176
     1
290
     0
176
     1
 90
       50
176
     1
 40
0.0
176
     1
 40
1.0
176
     1
 90
        0
176
     1
 62
    18
420
        0
176
     1
 90
       50
176
     1
 90
        3
176
     1
 62
     5
420
      255
176
     1
290
     0
176
     1
 90
       50
176
     1
 90
       50
176
     1
 90
       50
176
     1
290
     0
176
     1
 90
       50
176
     1
 62
   256
176
     0
 40
1.0
176
     0
 90
        0
176
     1
  1
strokes_ogs.tif
176
     1
290
     0
176
     1
 40
1.0
176
     1
 40
1.0
176
     1
  0
VISUALSTYLE
  5
152
102
{ACAD_REACTORS
330
14E
102
}
330
14E
100
AcDbVisualStyle
  2
GouraudWithEdges
 70
     3
177
     3
291
     1
 70
    58
 90
        2
176
     1
 90
        2
176
     1
 90
        1
176
     1
 90
        2
176
     1
 40
0.6
176
     1
 40
30.0
176
     1
 62
     7
420
 16777215
176
     1
 90
        1
176
     1
 90
        4
176
     1
 62
     7
176
     1
 62
   257
176
     1
 90
        1
176
     1
 90
        1
176
     1
 40
1.0
176
     1
 90
        0
176
     1
 62
   257
176
     1
 40
1.0
176
     1
 90
        1
176
     1
 90
        6
176
     1
 90
        2
176
     1
 62
     7
176
     1
 90
        5
176
     1
 90
        0
176
     1
 90
        0
176
     1
290
     0
176
     1
 90
       13
176
     1
 40
0.0
176
     1
 90
        0
176
     1
290
     0
176
     1
290
     1
176
     1
290
     1
176
     1
290
     0
176
     1
290
     0
176
     1
290
     0
176
     1
290
     0
176
     1
290
     0
176
     1
290
     0
176
     1
 90
       50
176
     1
 40
0.0
176
     1
 40
1.0
176
     1
 90
        0
176
     1
 62
    18
420
        0
176
     1
 90
       50
176
     1
 90
        3
176
     1
 62
     5
420
      255
176
     1
290
     0
176
     1
 90
       50
176
     1
 90
       50
176
     1
 90
       50
176
     1
290
     0
176
     1
 90
       50
176
     1
 62
   256
176
     0
 40
1.0
176
     0
 90
        0
176
     1
  1
strokes_ogs.tif
176
     1
290
     0
176
     1
 40
1.0
176
     1
 40
1.0
176
     1
  0
VISUALSTYLE
  5
185
102
{ACAD_REACTORS
330
14E
102
}
330
14E
100
AcDbVisualStyle
  2
Hidden
 70
     6
177
     3
291
     0
 70
    58
 90
        1
176
     1
 90
        2
176
     1
 90
        2
176
     1
 90
        0
176
     1
 40
0.6
176
     1
 40
30.0
176
     1
 62
     7
420
 16777215
176
     1
 90
        2
176
     1
 90
        2
176
     1
 62
     7
176
     1
 62
   257
176
     1
 90
        2
176
     1
 90
        1
176
     1
 40
40.0
176
     1
 90
        0
176
     1
 62
   257
176
     1
 40
1.0
176
     1
 90
        1
176
     1
 90
        6
176
     1
 90
        2
176
     1
 62
     7
176
     1
 90
        3
176
     1
 90
        0
176
     1
 90
        0
176
     1
290
     0
176
     1
 90
        1
176
     1
 40
0.0
176
     1
 90
        0
176
     1
290
     0
176
     1
290
     1
176
     1
290
     1
176
     1
290
     0
176
     1
290
     0
176
     1
290
     0
176
     1
290
     0
176
     1
290
     0
176
     1
290
     0
176
     1
 90
       50
176
     1
 40
0.0
176
     1
 40
1.0
176
     1
 90
        0
176
     1
 62
    18
420
        0
176
     1
 90
       50
176
     1
 90
        3
176
     1
 62
     5
420
      255
176
     1
290
     0
176
     1
 90
       50
176
     1
 90
       50
176
     1
 90
       50
176
     1
290
     0
176
     1
 90
       50
176
     1
 62
   256
176
     0
 40
1.0
176
     0
 90
        0
176
     1
  1
strokes_ogs.tif
176
     1
290
     0
176
     1
 40
1.0
176
     1
 40
1.0
176
     1
  0
VISUALSTYLE
  5
15F
102
{ACAD_REACTORS
330
14E
102
}
330
14E
100
AcDbVisualStyle
  2
JitterOff
 70
    20
177
     3
291
     1
 70
    58
 90
        2
176
     0
 90
        2
176
     0
 90
        0
176
     0
 90
        0
176
     0
 40
0.6
176
     0
 40
30.0
176
     0
 62
     7
420
 16777215
176
     0
 90
        1
176
     0
 90
        4
176
     0
 62
     7
176
     0
 62
   257
176
     0
 90
        1
176
     0
 90
        1
176
     0
 40
1.0
176
     0
 90
       10
176
     2
 62
     7
176
     0
 40
1.0
176
     0
 90
        1
176
     0
 90
        6
176
     0
 90
        2
176
     0
 62
     7
176
     0
 90
        5
176
     0
 90
        0
176
     0
 90
        0
176
     0
290
     0
176
     0
 90
        1
176
     0
 40
0.0
176
     0
 90
        0
176
     0
290
     0
176
     1
290
     1
176
     1
290
     1
176
     1
290
     0
176
     1
290
     0
176
     1
290
     0
176
     1
290
     0
176
     1
290
     0
176
     1
290
     0
176
     1
 90
       50
176
     1
 40
0.0
176
     1
 40
1.0
176
     1
 90
        0
176
     1
 62
    18
420
        0
176
     1
 90
       50
176
     1
 90
        3
176
     1
 62
     5
420
      255
176
     1
290
     0
176
     1
 90
       50
176
     1
 90
       50
176
     1
 90
       50
176
     1
290
     0
176
     1
 90
       50
176
     1
 62
   256
176
     0
 40
1.0
176
     0
 90
        0
176
     1
  1
strokes_ogs.tif
176
     1
290
     0
176
     1
 40
1.0
176
     1
 40
1.0
176
     1
  0
VISUALSTYLE
  5
15C
102
{ACAD_REACTORS
330
14E
102
}
330
14E
100
AcDbVisualStyle
  2
Linepattern
 70
    14
177
     3
291
     1
 70
    58
 90
        2
176
     1
 90
        2
176
     1
 90
        0
176
     1
 90
        0
176
     1
 40
0.6
176
     1
 40
30.0
176
     1
 62
     7
420
 16777215
176
     1
 90
        1
176
     1
 90
        4
176
     1
 62
     7
176
     1
 62
   257
176
     1
 90
        7
176
     1
 90
        7
176
     1
 40
1.0
176
     1
 90
        8
176
     1
 62
     7
176
     1
 40
1.0
176
     1
 90
        1
176
     1
 90
        6
176
     1
 90
        2
176
     1
 62
     7
176
     1
 90
        5
176
     1
 90
        0
176
     1
 90
        0
176
     1
290
     0
176
     1
 90
        1
176
     1
 40
0.0
176
     1
 90
        0
176
     1
290
     0
176
     1
290
     1
176
     1
290
     1
176
     1
290
     0
176
     1
290
     0
176
     1
290
     0
176
     1
290
     0
176
     1
290
     0
176
     1
290
     0
176
     1
 90
       50
176
     1
 40
0.0
176
     1
 40
1.0
176
     1
 90
        0
176
     1
 62
    18
420
        0
176
     1
 90
       50
176
     1
 90
        3
176
     1
 62
     5
420
      255
176
     1
290
     0
176
     1
 90
       50
176
     1
 90
       50
176
     1
 90
       50
176
     1
290
     0
176
     1
 90
       50
176
     1
 62
   256
176
     0
 40
1.0
176
     0
 90
        0
176
     1
  1
strokes_ogs.tif
176
     1
290
     0
176
     1
 40
1.0
176
     1
 40
1.0
176
     1
  0
VISUALSTYLE
  5
160
102
{ACAD_REACTORS
330
14E
102
}
330
14E
100
AcDbVisualStyle
  2
OverhangOff
 70
    21
177
     3
291
     1
 70
    58
 90
        2
176
     0
 90
        2
176
     0
 90
        0
176
     0
 90
        0
176
     0
 40
0.6
176
     0
 40
30.0
176
     0
 62
     7
420
 16777215
176
     0
 90
        1
176
     0
 90
        4
176
     0
 62
     7
176
     0
 62
   257
176
     0
 90
        1
176
     0
 90
        1
176
     0
 40
1.0
176
     0
 90
        9
176
     2
 62
     7
176
     0
 40
1.0
176
     0
 90
        1
176
     0
 90
        6
176
     0
 90
        2
176
     0
 62
     7
176
     0
 90
        5
176
     0
 90
        0
176
     0
 90
        0
176
     0
290
     0
176
     0
 90
        1
176
     0
 40
0.0
176
     0
 90
        0
176
     0
290
     0
176
     1
290
     1
176
     1
290
     1
176
     1
290
     0
176
     1
290
     0
176
     1
290
     0
176
     1
290
     0
176
     1
290
     0
176
     1
290
     0
176
     1
 90
       50
176
     1
 40
0.0
176
     1
 40
1.0
176
     1
 90
        0
176
     1
 62
    18
420
        0
176
     1
 90
       50
176
     1
 90
        3
176
     1
 62
     5
420
      255
176
     1
290
     0
176
     1
 90
       50
176
     1
 90
       50
176
     1
 90
       50
176
     1
290
     0
176
     1
 90
       50
176
     1
 62
   256
176
     0
 40
1.0
176
     0
 90
        0
176
     1
  1
strokes_ogs.tif
176
     1
290
     0
176
     1
 40
1.0
176
     1
 40
1.0
176
     1
  0
VISUALSTYLE
  5
158
102
{ACAD_REACTORS
330
14E
102
}
330
14E
100
AcDbVisualStyle
  2
Realistic
 70
     8
177
     3
291
     0
 70
    58
 90
        2
176
     1
 90
        2
176
     1
 90
        0
176
     1
 90
        0
176
     1
 40
0.6
176
     1
 40
30.0
176
     1
 62
     7
420
 16777215
176
     1
 90
        1
176
     1
 90
        0
176
     1
 62
     7
176
     1
 62
   257
176
     1
 90
        1
176
     1
 90
        1
176
     1
 40
1.0
176
     1
 90
        8
176
     1
 62
     8
420
  7895160
176
     1
 40
1.0
176
     1
 90
        1
176
     1
 90
        6
176
     1
 90
        2
176
     1
 62
     7
176
     1
 90
        5
176
     1
 90
        0
176
     1
 90
        0
176
     1
290
     0
176
     1
 90
       13
176
     1
 40
0.0
176
     1
 90
        0
176
     1
290
     0
176
     1
290
     1
176
     1
290
     1
176
     1
290
     0
176
     1
290
     0
176
     1
290
     0
176
     1
290
     0
176
     1
290
     0
176
     1
290
     0
176
     1
 90
       50
176
     1
 40
0.0
176
     1
 40
1.0
176
     1
 90
        0
176
     1
 62
    18
420
        0
176
     1
 90
       50
176
     1
 90
        3
176
     1
 62
     5
420
      255
176
     1
290
     0
176
     1
 90
       50
176
     1
 90
       50
176
     1
 90
       50
176
     1
290
     0
176
     1
 90
       50
176
     1
 62
   256
176
     0
 40
1.0
176
     0
 90
        0
176
     1
  1
strokes_ogs.tif
176
     1
290
     0
176
     1
 40
1.0
176
     1
 40
1.0
176
     1
  0
VISUALSTYLE
  5
18A
102
{ACAD_REACTORS
330
14E
102
}
330
14E
100
AcDbVisualStyle
  2
Shaded
 70
    27
177
     3
291
     0
 70
    58
 90
        2
176
     1
 90
        2
176
     1
 90
        1
176
     1
 90
        2
176
     1
 40
0.6
176
     1
 40
30.0
176
     1
 62
     7
420
 16777215
176
     1
 90
        0
176
     1
 90
        4
176
     1
 62
     7
176
     1
 62
   257
176
     1
 90
        1
176
     1
 90
        1
176
     1
 40
1.0
176
     1
 90
        8
176
     1
 62
   257
176
     1
 40
1.0
176
     1
 90
        1
176
     1
 90
        6
176
     1
 90
        2
176
     1
 62
     8
420
  7895160
176
     1
 90
        3
176
     1
 90
        0
176
     1
 90
        0
176
     1
290
     0
176
     1
 90
        5
176
     1
 40
0.0
176
     1
 90
        0
176
     1
290
     0
176
     1
290
     1
176
     1
290
     1
176
     1
290
     0
176
     1
290
     0
176
     1
290
     0
176
     1
290
     0
176
     1
290
     0
176
     1
290
     0
176
     1
 90
       50
176
     1
 40
0.0
176
     1
 40
1.0
176
     1
 90
        0
176
     1
 62
    18
420
        0
176
     1
 90
       50
176
     1
 90
        3
176
     1
 62
     5
420
      255
176
     1
290
     0
176
     1
 90
       50
176
     1
 90
       50
176
     1
 90
       50
176
     1
290
     0
176
     1
 90
       50
176
     1
 62
   256
176
     0
 40
1.0
176
     0
 90
        2
176
     1
  1
strokes_ogs.tif
176
     1
290
     0
176
     1
 40
1.0
176
     1
 40
1.0
176
     1
  0
VISUALSTYLE
  5
189
102
{ACAD_REACTORS
330
14E
102
}
330
14E
100
AcDbVisualStyle
  2
Shaded with edges
 70
    26
177
     3
291
     0
 70
    58
 90
        2
176
     1
 90
        2
176
     1
 90
        1
176
     1
 90
        2
176
     1
 40
0.6
176
     1
 40
30.0
176
     1
 62
     7
420
 16777215
176
     1
 90
        1
176
     1
 90
       10
176
     1
 62
     7
176
     1
 62
   257
176
     1
 90
        2
176
     1
 90
        1
176
     1
 40
1.0
176
     1
 90
        8
176
     1
 62
   257
176
     1
 40
1.0
176
     1
 90
        1
176
     1
 90
        6
176
     1
 90
        2
176
     1
 62
     7
176
     1
 90
        3
176
     1
 90
        0
176
     1
 90
        0
176
     1
290
     0
176
     1
 90
        5
176
     1
 40
0.0
176
     1
 90
        0
176
     1
290
     0
176
     1
290
     1
176
     1
290
     1
176
     1
290
     0
176
     1
290
     0
176
     1
290
     0
176
     1
290
     0
176
     1
290
     0
176
     1
290
     0
176
     1
 90
       50
176
     1
 40
0.0
176
     1
 40
1.0
176
     1
 90
        0
176
     1
 62
    18
420
        0
176
     1
 90
       50
176
     1
 90
        3
176
     1
 62
     5
420
      255
176
     1
290
     0
176
     1
 90
       50
176
     1
 90
       50
176
     1
 90
       50
176
     1
290
     0
176
     1
 90
       50
176
     1
 62
   256
176
     0
 40
1.0
176
     0
 90
        2
176
     1
  1
strokes_ogs.tif
176
     1
290
     0
176
     1
 40
1.0
176
     1
 40
1.0
176
     1
  0
VISUALSTYLE
  5
186
102
{ACAD_REACTORS
330
14E
102
}
330
14E
100
AcDbVisualStyle
  2
Shades of Gray
 70
    23
177
     3
291
     0
 70
    58
 90
        2
176
     1
 90
        2
176
     1
 90
        3
176
     1
 90
        0
176
     1
 40
0.6
176
     1
 40
30.0
176
     1
 62
     7
420
 16777215
176
     1
 90
        2
176
     1
 90
        2
176
     1
 62
     7
176
     1
 62
     7
176
     1
 90
        1
176
     1
 90
        1
176
     1
 40
40.0
176
     1
 90
        8
176
     1
 62
     7
176
     1
 40
1.0
176
     1
 90
        1
176
     1
 90
        6
176
     1
 90
        2
176
     1
 62
     7
176
     1
 90
        3
176
     1
 90
        0
176
     1
 90
        0
176
     1
290
     0
176
     1
 90
        1
176
     1
 40
0.0
176
     1
 90
        0
176
     1
290
     0
176
     1
290
     1
176
     1
290
     1
176
     1
290
     0
176
     1
290
     0
176
     1
290
     0
176
     1
290
     0
176
     1
290
     0
176
     1
290
     0
176
     1
 90
       50
176
     1
 40
0.0
176
     1
 40
1.0
176
     1
 90
        0
176
     1
 62
    18
420
        0
176
     1
 90
       50
176
     1
 90
        3
176
     1
 62
     5
420
      255
176
     1
290
     0
176
     1
 90
       50
176
     1
 90
       50
176
     1
 90
       50
176
     1
290
     0
176
     1
 90
       50
176
     1
 62
   256
176
     0
 40
1.0
176
     0
 90
        0
176
     1
  1
strokes_ogs.tif
176
     1
290
     0
176
     1
 40
1.0
176
     1
 40
1.0
176
     1
  0
VISUALSTYLE
  5
187
102
{ACAD_REACTORS
330
14E
102
}
330
14E
100
AcDbVisualStyle
  2
Sketchy
 70
    24
177
     3
291
     0
 70
    58
 90
        1
176
     1
 90
        2
176
     1
 90
        2
176
     1
 90
        0
176
     1
 40
0.6
176
     1
 40
30.0
176
     1
 62
     7
420
 16777215
176
     1
 90
        2
176
     1
 90
        2
176
     1
 62
     7
176
     1
 62
     7
176
     1
 90
        1
176
     1
 90
        1
176
     1
 40
40.0
176
     1
 90
       11
176
     1
 62
     7
176
     1
 40
1.0
176
     1
 90
        1
176
     1
 90
        6
176
     1
 90
        2
176
     1
 62
     7
176
     1
 90
        6
176
     1
 90
        0
176
     1
 90
        0
176
     1
290
     0
176
     1
 90
        1
176
     1
 40
0.0
176
     1
 90
        0
176
     1
290
     0
176
     1
290
     1
176
     1
290
     1
176
     1
290
     0
176
     1
290
     0
176
     1
290
     0
176
     1
290
     0
176
     1
290
     0
176
     1
290
     0
176
     1
 90
       50
176
     1
 40
0.0
176
     1
 40
1.0
176
     1
 90
        0
176
     1
 62
    18
420
        0
176
     1
 90
       50
176
     1
 90
        3
176
     1
 62
     5
420
      255
176
     1
290
     0
176
     1
 90
       50
176
     1
 90
       50
176
     1
 90
       50
176
     1
290
     0
176
     1
 90
       50
176
     1
 62
   256
176
     0
 40
1.0
176
     0
 90
        0
176
     1
  1
strokes_ogs.tif
176
     1
290
     0
176
     1
 40
1.0
176
     1
 40
1.0
176
     1
  0
VISUALSTYLE
  5
15B
102
{ACAD_REACTORS
330
14E
102
}
330
14E
100
AcDbVisualStyle
  2
Thicken
 70
    13
177
     3
291
     1
 70
    58
 90
        2
176
     1
 90
        2
176
     1
 90
        0
176
     1
 90
        0
176
     1
 40
0.6
176
     1
 40
30.0
176
     1
 62
     7
420
 16777215
176
     1
 90
        1
176
     1
 90
        4
176
     1
 62
     7
176
     1
 62
   257
176
     1
 90
        1
176
     1
 90
        1
176
     1
 40
1.0
176
     1
 90
       12
176
     1
 62
     7
176
     1
 40
1.0
176
     1
 90
        1
176
     1
 90
        6
176
     1
 90
        2
176
     1
 62
     7
176
     1
 90
        5
176
     1
 90
        0
176
     1
 90
        0
176
     1
290
     0
176
     1
 90
        1
176
     1
 40
0.0
176
     1
 90
        0
176
     1
290
     0
176
     1
290
     1
176
     1
290
     1
176
     1
290
     0
176
     1
290
     0
176
     1
290
     0
176
     1
290
     0
176
     1
290
     0
176
     1
290
     0
176
     1
 90
       50
176
     1
 40
0.0
176
     1
 40
1.0
176
     1
 90
        0
176
     1
 62
    18
420
        0
176
     1
 90
       50
176
     1
 90
        3
176
     1
 62
     5
420
      255
176
     1
290
     0
176
     1
 90
       50
176
     1
 90
       50
176
     1
 90
       50
176
     1
290
     0
176
     1
 90
       50
176
     1
 62
   256
176
     0
 40
1.0
176
     0
 90
        0
176
     1
  1
strokes_ogs.tif
176
     1
290
     0
176
     1
 40
1.0
176
     1
 40
1.0
176
     1
  0
VISUALSTYLE
  5
184
102
{ACAD_REACTORS
330
14E
102
}
330
14E
100
AcDbVisualStyle
  2
Wireframe
 70
     5
177
     3
291
     0
 70
    58
 90
        0
176
     1
 90
        2
176
     1
 90
        0
176
     1
 90
        0
176
     1
 40
0.6
176
     1
 40
30.0
176
     1
 62
     7
420
 16777215
176
     1
 90
        1
176
     1
 90
        4
176
     1
 62
     7
176
     1
 62
   257
176
     1
 90
        1
176
     1
 90
        1
176
     1
 40
1.0
176
     1
 90
        0
176
     1
 62
   257
176
     1
 40
1.0
176
     1
 90
        1
176
     1
 90
        6
176
     1
 90
        2
176
     1
 62
     7
176
     1
 90
        3
176
     1
 90
        0
176
     1
 90
        0
176
     1
290
     0
176
     1
 90
        1
176
     1
 40
0.0
176
     1
 90
        0
176
     1
290
     0
176
     1
290
     1
176
     1
290
     1
176
     1
290
     0
176
     1
290
     0
176
     1
290
     0
176
     1
290
     0
176
     1
290
     0
176
     1
290
     0
176
     1
 90
       50
176
     1
 40
0.0
176
     1
 40
1.0
176
     1
 90
        0
176
     1
 62
    18
420
        0
176
     1
 90
       50
176
     1
 90
        3
176
     1
 62
     5
420
      255
176
     1
290
     0
176
     1
 90
       50
176
     1
 90
       50
176
     1
 90
       50
176
     1
290
     0
176
     1
 90
       50
176
     1
 62
   256
176
     0
 40
1.0
176
     0
 90
        0
176
     1
  1
strokes_ogs.tif
176
     1
290
     0
176
     1
 40
1.0
176
     1
 40
1.0
176
     1
  0
VISUALSTYLE
  5
188
102
{ACAD_REACTORS
330
14E
102
}
330
14E
100
AcDbVisualStyle
  2
X-Ray
 70
    25
177
     3
291
     0
 70
    58
 90
        2
176
     1
 90
        2
176
     1
 90
        1
176
     1
 90
        1
176
     1
 40
0.5
176
     1
 40
30.0
176
     1
 62
     7
420
 16777215
176
     1
 90
        1
176
     1
 90
        0
176
     1
 62
     7
176
     1
 62
   257
176
     1
 90
        1
176
     1
 90
        1
176
     1
 40
1.0
176
     1
 90
        8
176
     1
 62
     7
176
     1
 40
1.0
176
     1
 90
        1
176
     1
 90
        6
176
     1
 90
        2
176
     1
 62
     7
176
     1
 90
        3
176
     1
 90
        0
176
     1
 90
        0
176
     1
290
     0
176
     1
 90
       13
176
     1
 40
0.0
176
     1
 90
        0
176
     1
290
     0
176
     1
290
     1
176
     1
290
     1
176
     1
290
     0
176
     1
290
     0
176
     1
290
     0
176
     1
290
     0
176
     1
290
     0
176
     1
290
     0
176
     1
 90
       50
176
     1
 40
0.0
176
     1
 40
1.0
176
     1
 90
        0
176
     1
 62
    18
420
        0
176
     1
 90
       50
176
     1
 90
        3
176
     1
 62
     5
420
      255
176
     1
290
     0
176
     1
 90
       50
176
     1
 90
       50
176
     1
 90
       50
176
     1
290
     0
176
     1
 90
       50
176
     1
 62
   256
176
     0
 40
1.0
176
     0
 90
        2
176
     1
  1
strokes_ogs.tif
176
     1
290
     0
176
     1
 40
1.0
176
     1
 40
1.0
176
     1
  0
DICTIONARYVAR
  5
CB
102
{ACAD_REACTORS
330
59
102
}
330
59
100
DictionaryVariables
280
     0
  1
1:1
  0
DICTIONARYVAR
  5
DA
102
{ACAD_REACTORS
330
59
102
}
330
59
100
DictionaryVariables
280
     0
  1
STANDARD
  0
DICTIONARYVAR
  5
98
102
{ACAD_REACTORS
330
59
102
}
330
59
100
DictionaryVariables
280
     0
  1
STANDARD
  0
DICTIONARYVAR
  5
1F8
102
{ACAD_REACTORS
330
59
102
}
330
59
100
DictionaryVariables
280
     0
  1
Imperial24
  0
DICTIONARYVAR
  5
1F9
102
{ACAD_REACTORS
330
59
102
}
330
59
100
DictionaryVariables
280
     0
  1
Imperial24
  0
DICTIONARYVAR
  5
9A
102
{ACAD_REACTORS
330
59
102
}
330
59
100
DictionaryVariables
280
     0
  1
2
  0
DICTIONARYVAR
  5
5E
102
{ACAD_REACTORS
330
59
102
}
330
59
100
DictionaryVariables
280
     0
  1
1
  0
DICTIONARYVAR
  5
D0
102
{ACAD_REACTORS
330
59
102
}
330
59
100
DictionaryVariables
280
     0
  1
2
  0
ENDSEC
  0
SECTION
  2
ACDSDATA
 70
     2
 71
     2
  0
ACDSSCHEMA
 90
        0
  1
AcDb3DSolid_ASM_Data
  2
AcDbDs::ID
280
    10
 91
        0
  2
ASM_Data
280
    15
 91
        0
101
ACDSRECORD
 95
        0
 90
        1
  2
AcDbDs::TreatedAsObjectData
280
     1
291
     1
101
ACDSRECORD
 95
        0
 90
        2
  2
AcDbDs::Legacy
280
     1
291
     1
101
ACDSRECORD
  1
AcDbDs::ID
 90
        3
  2
AcDs:Indexable
280
     1
291
     1
101
ACDSRECORD
  1
AcDbDs::ID
 90
        4
  2
AcDbDs::HandleAttribute
280
     7
282
     1
  0
ACDSSCHEMA
 90
        1
  1
AcDbDs::TreatedAsObjectDataSchema
  2
AcDbDs::TreatedAsObjectData
280
     1
 91
        0
  0
ACDSSCHEMA
 90
        2
  1
AcDbDs::LegacySchema
  2
AcDbDs::Legacy
280
     1
 91
        0
  0
ACDSSCHEMA
 90
        3
  1
AcDbDs::IndexedPropertySchema
  2
AcDs:Indexable
280
     1
 91
        0
  0
ACDSSCHEMA
 90
        4
  1
AcDbDs::HandleAttributeSchema
  2
AcDbDs::HandleAttribute
280
     7
 91
        8
  0
ENDSEC
  0
EOF
